<svg id="svg" version="1.1" xmlns="http://www.w3.org/2000/svg" xmlns:xlink="http://www.w3.org/1999/xlink" width="400" height="189.13196894848272" viewBox="0, 0, 400,189.13196894848272"><g id="svgg"><path id="path0" d="M101.088 14.696 C 100.646 14.743,100.284 14.853,100.284 14.942 C 100.284 15.031,99.943 15.161,99.527 15.232 C 99.111 15.302,98.770 15.437,98.770 15.532 C 98.770 15.627,98.673 15.705,98.554 15.705 C 98.221 15.705,96.689 16.509,96.689 16.684 C 96.689 16.770,96.558 16.840,96.399 16.840 C 96.240 16.840,96.060 16.968,96.000 17.124 C 95.940 17.280,95.780 17.408,95.643 17.408 C 95.359 17.408,92.651 20.062,92.183 20.798 C 92.012 21.067,91.764 21.355,91.632 21.438 C 91.499 21.521,91.391 21.713,91.391 21.864 C 91.391 22.015,91.311 22.138,91.214 22.138 C 91.117 22.138,90.978 22.330,90.905 22.564 C 90.832 22.798,90.720 23.032,90.656 23.084 C 90.467 23.238,90.069 23.897,89.829 24.456 C 89.706 24.742,89.538 24.976,89.457 24.976 C 89.376 24.976,89.309 25.083,89.308 25.213 C 89.308 25.343,89.188 25.678,89.042 25.957 C 88.897 26.236,88.720 26.726,88.650 27.045 C 88.580 27.364,88.454 27.625,88.369 27.625 C 88.285 27.625,88.160 27.923,88.092 28.288 C 88.024 28.652,87.896 28.950,87.809 28.950 C 87.721 28.950,87.592 29.333,87.522 29.801 C 87.451 30.270,87.322 30.653,87.234 30.653 C 87.146 30.653,87.016 31.079,86.944 31.599 C 86.873 32.119,86.745 32.545,86.661 32.545 C 86.577 32.545,86.449 33.056,86.376 33.681 C 86.304 34.305,86.174 34.860,86.087 34.913 C 86.001 34.967,85.872 35.479,85.800 36.051 C 85.729 36.623,85.604 37.132,85.522 37.182 C 85.441 37.233,85.315 37.870,85.241 38.599 C 85.168 39.328,85.042 39.924,84.960 39.924 C 84.879 39.924,84.753 40.563,84.680 41.343 C 84.607 42.124,84.479 42.763,84.396 42.763 C 84.313 42.763,84.185 43.486,84.111 44.371 C 84.038 45.255,83.911 45.979,83.830 45.979 C 83.748 45.979,83.622 46.660,83.550 47.493 C 83.477 48.325,83.351 49.007,83.269 49.007 C 83.187 49.007,83.063 49.619,82.993 50.367 C 82.863 51.773,82.761 52.074,82.535 51.726 C 82.450 51.595,80.502 51.480,77.021 51.399 C 74.061 51.331,71.591 51.202,71.534 51.113 C 71.476 51.024,71.026 50.892,70.534 50.819 C 70.042 50.747,69.596 50.617,69.543 50.531 C 69.490 50.445,69.147 50.318,68.782 50.249 C 68.416 50.181,68.117 50.053,68.117 49.966 C 68.117 49.879,67.968 49.760,67.786 49.703 C 67.437 49.592,66.386 48.987,66.225 48.804 C 65.789 48.308,63.284 47.496,62.185 47.494 C 61.064 47.492,58.278 49.189,58.278 49.872 C 58.278 50.021,57.444 51.175,57.285 51.246 C 57.207 51.280,57.143 51.412,57.143 51.538 C 57.143 52.018,54.762 54.572,54.128 54.774 C 53.913 54.842,53.737 54.977,53.737 55.074 C 53.737 55.171,53.607 55.251,53.447 55.251 C 53.288 55.251,53.111 55.371,53.055 55.517 C 52.999 55.664,52.746 55.836,52.493 55.899 C 52.241 55.963,52.034 56.092,52.034 56.185 C 52.034 56.279,51.779 56.412,51.466 56.481 C 51.154 56.549,50.899 56.665,50.899 56.738 C 50.899 56.811,50.665 56.971,50.378 57.095 C 49.799 57.344,49.152 57.738,49.005 57.932 C 48.952 58.002,48.675 58.117,48.390 58.189 C 48.105 58.261,47.871 58.395,47.871 58.488 C 47.871 59.255,46.960 58.277,46.812 57.351 C 46.743 56.924,46.622 56.575,46.541 56.575 C 46.461 56.575,46.335 56.064,46.263 55.440 C 46.191 54.816,46.060 54.305,45.974 54.305 C 45.887 54.305,45.757 53.623,45.684 52.791 C 45.611 51.958,45.478 51.277,45.387 51.277 C 45.296 51.277,45.222 49.872,45.222 48.155 C 45.222 46.438,45.297 45.033,45.389 45.033 C 45.481 45.033,45.616 44.224,45.691 43.236 C 45.765 42.247,45.896 41.395,45.982 41.342 C 46.068 41.289,46.199 40.394,46.272 39.355 C 46.346 38.315,46.481 37.465,46.571 37.465 C 46.662 37.465,46.736 36.060,46.736 34.342 C 46.736 32.625,46.662 31.220,46.571 31.220 C 46.481 31.220,46.349 30.710,46.278 30.085 C 46.207 29.461,46.075 28.950,45.985 28.950 C 45.894 28.950,45.760 28.678,45.687 28.346 C 45.614 28.013,45.437 27.624,45.294 27.481 C 45.150 27.337,45.033 27.098,45.033 26.950 C 45.033 26.801,44.945 26.679,44.838 26.679 C 44.731 26.679,44.588 26.530,44.521 26.348 C 44.414 26.058,43.789 25.412,42.868 24.641 C 42.710 24.509,42.322 24.349,42.005 24.286 C 41.689 24.222,41.384 24.096,41.328 24.006 C 41.194 23.788,37.654 23.792,37.654 24.009 C 37.654 24.102,37.356 24.233,36.991 24.302 C 36.627 24.370,36.329 24.501,36.329 24.594 C 36.329 24.686,36.155 24.817,35.941 24.885 C 35.541 25.012,34.255 26.200,34.253 26.446 C 34.252 26.522,34.125 26.732,33.970 26.913 C 33.815 27.093,33.635 27.455,33.569 27.717 C 33.504 27.979,33.378 28.193,33.290 28.193 C 33.202 28.193,33.074 28.491,33.005 28.855 C 32.937 29.219,32.812 29.518,32.728 29.518 C 32.644 29.518,32.522 30.092,32.456 30.795 C 32.391 31.497,32.257 32.220,32.158 32.400 C 31.923 32.829,31.923 37.560,32.158 37.987 C 32.258 38.168,32.393 39.146,32.460 40.161 C 32.526 41.175,32.649 42.006,32.733 42.006 C 32.816 42.006,32.945 42.602,33.018 43.331 C 33.091 44.060,33.225 44.702,33.316 44.758 C 33.406 44.814,33.536 45.282,33.605 45.798 C 33.673 46.314,33.800 46.736,33.887 46.736 C 33.974 46.736,34.102 47.162,34.171 47.682 C 34.240 48.202,34.360 48.628,34.437 48.628 C 34.515 48.628,34.632 48.969,34.699 49.385 C 34.766 49.801,34.899 50.142,34.995 50.142 C 35.092 50.142,35.228 50.525,35.298 50.993 C 35.369 51.462,35.498 51.845,35.585 51.845 C 35.673 51.845,35.800 52.143,35.869 52.507 C 35.937 52.871,36.058 53.169,36.137 53.169 C 36.216 53.169,36.335 53.510,36.402 53.926 C 36.468 54.342,36.603 54.683,36.701 54.683 C 36.799 54.683,36.936 54.981,37.004 55.345 C 37.072 55.710,37.197 56.008,37.281 56.008 C 37.366 56.008,37.491 56.263,37.559 56.575 C 37.628 56.887,37.751 57.143,37.834 57.143 C 37.916 57.143,38.038 57.483,38.105 57.900 C 38.171 58.316,38.303 58.657,38.398 58.657 C 38.492 58.657,38.626 58.912,38.694 59.224 C 38.763 59.536,38.888 59.792,38.972 59.792 C 39.056 59.792,39.181 60.090,39.250 60.454 C 39.318 60.818,39.448 61.116,39.539 61.116 C 39.631 61.116,39.761 61.372,39.830 61.684 C 39.898 61.996,40.023 62.252,40.106 62.252 C 40.732 62.252,40.106 63.939,39.476 63.951 C 39.386 63.953,38.982 64.295,38.578 64.711 C 38.174 65.128,37.767 65.468,37.675 65.468 C 37.582 65.468,37.035 65.915,36.458 66.462 C 35.882 67.008,34.851 67.954,34.167 68.565 C 33.483 69.175,32.923 69.749,32.923 69.841 C 32.923 69.932,32.412 70.506,31.788 71.115 C 31.164 71.724,30.653 72.314,30.653 72.427 C 30.653 72.539,30.457 72.786,30.218 72.976 C 29.979 73.166,29.575 73.619,29.319 73.983 C 29.064 74.347,28.749 74.713,28.619 74.797 C 28.489 74.880,28.382 75.064,28.382 75.207 C 28.382 75.349,28.311 75.494,28.224 75.528 C 27.993 75.620,25.922 78.764,25.922 79.023 C 25.922 79.142,25.795 79.290,25.639 79.349 C 25.482 79.409,25.355 79.589,25.355 79.748 C 25.355 79.907,25.279 80.038,25.186 80.038 C 25.093 80.038,24.964 80.251,24.899 80.511 C 24.833 80.771,24.703 80.984,24.609 80.984 C 24.516 80.984,24.383 81.239,24.314 81.552 C 24.246 81.864,24.118 82.119,24.030 82.119 C 23.943 82.119,23.815 82.375,23.746 82.687 C 23.678 82.999,23.550 83.254,23.463 83.254 C 23.375 83.254,23.247 83.510,23.179 83.822 C 23.110 84.134,22.983 84.390,22.895 84.390 C 22.807 84.390,22.680 84.645,22.611 84.957 C 22.543 85.270,22.424 85.525,22.348 85.525 C 22.176 85.525,21.381 87.316,21.381 87.703 C 21.381 87.858,21.300 87.985,21.201 87.985 C 21.101 87.985,20.964 88.283,20.896 88.647 C 20.827 89.011,20.697 89.309,20.606 89.309 C 20.514 89.309,20.385 89.650,20.319 90.066 C 20.252 90.482,20.129 90.823,20.044 90.823 C 19.960 90.823,19.833 91.206,19.763 91.675 C 19.693 92.143,19.563 92.526,19.474 92.526 C 19.385 92.526,19.256 92.952,19.187 93.472 C 19.118 93.992,18.994 94.418,18.911 94.418 C 18.828 94.418,18.701 94.886,18.629 95.459 C 18.558 96.031,18.434 96.500,18.354 96.500 C 18.274 96.500,18.149 97.053,18.077 97.729 C 18.005 98.406,17.877 98.959,17.794 98.959 C 17.710 98.959,17.580 99.704,17.504 100.615 C 17.429 101.526,17.288 102.320,17.191 102.381 C 17.095 102.441,16.963 104.080,16.898 106.023 C 16.834 107.966,16.709 109.555,16.621 109.555 C 16.533 109.555,16.462 110.151,16.462 110.880 C 16.462 111.608,16.533 112.204,16.621 112.204 C 16.709 112.204,16.834 113.794,16.898 115.737 C 16.963 117.680,17.091 119.319,17.184 119.379 C 17.277 119.440,17.413 120.168,17.486 120.998 C 17.560 121.827,17.691 122.593,17.777 122.700 C 17.863 122.807,17.994 123.427,18.068 124.078 C 18.141 124.728,18.270 125.260,18.354 125.260 C 18.437 125.260,18.565 125.771,18.638 126.395 C 18.710 127.020,18.841 127.531,18.928 127.531 C 19.016 127.531,19.145 127.914,19.215 128.382 C 19.285 128.851,19.413 129.234,19.499 129.234 C 19.585 129.234,19.713 129.617,19.783 130.085 C 19.853 130.553,19.981 130.937,20.067 130.937 C 20.153 130.937,20.280 131.320,20.350 131.788 C 20.421 132.256,20.550 132.640,20.637 132.640 C 20.725 132.640,20.852 132.938,20.921 133.302 C 20.989 133.666,21.114 133.964,21.198 133.964 C 21.282 133.964,21.407 134.219,21.476 134.532 C 21.544 134.844,21.672 135.099,21.760 135.099 C 21.847 135.099,21.974 135.350,22.041 135.657 C 22.208 136.414,23.708 139.373,24.063 139.642 C 24.132 139.695,24.248 139.972,24.320 140.257 C 24.391 140.542,24.520 140.776,24.606 140.776 C 24.691 140.776,24.821 140.963,24.894 141.193 C 24.967 141.422,25.121 141.717,25.238 141.848 C 25.740 142.416,25.922 142.659,25.922 142.764 C 25.922 142.825,26.263 143.388,26.679 144.015 C 27.096 144.642,27.436 145.234,27.436 145.330 C 27.436 145.427,27.516 145.506,27.613 145.506 C 27.710 145.506,27.839 145.664,27.900 145.857 C 27.962 146.050,28.263 146.455,28.570 146.756 C 28.877 147.057,29.131 147.379,29.134 147.471 C 29.137 147.563,29.332 147.819,29.568 148.039 C 29.803 148.259,30.205 148.737,30.461 149.101 C 30.716 149.465,31.162 149.974,31.451 150.231 C 31.741 150.489,31.977 150.771,31.977 150.859 C 31.977 151.045,35.470 154.588,35.654 154.588 C 35.722 154.588,36.258 155.057,36.844 155.629 C 37.430 156.202,37.973 156.670,38.051 156.670 C 38.129 156.670,38.448 156.925,38.760 157.237 C 39.072 157.550,39.398 157.807,39.484 157.810 C 39.570 157.813,39.887 158.067,40.188 158.374 C 40.490 158.681,40.894 158.982,41.087 159.044 C 41.280 159.105,41.438 159.235,41.438 159.332 C 41.438 159.429,41.527 159.508,41.635 159.508 C 41.804 159.508,42.858 160.170,43.141 160.454 C 43.193 160.507,43.491 160.677,43.803 160.833 C 44.115 160.989,44.474 161.202,44.601 161.306 C 44.727 161.410,44.947 161.591,45.088 161.708 C 45.230 161.826,45.531 161.980,45.757 162.052 C 45.983 162.124,46.168 162.255,46.168 162.344 C 46.168 162.433,46.424 162.562,46.736 162.630 C 47.048 162.699,47.304 162.826,47.304 162.914 C 47.304 163.001,47.559 163.129,47.871 163.198 C 48.184 163.266,48.439 163.399,48.439 163.492 C 48.439 163.693,49.992 164.428,50.415 164.428 C 50.577 164.428,50.710 164.506,50.710 164.602 C 50.710 164.698,50.965 164.832,51.277 164.901 C 51.589 164.969,51.845 165.100,51.845 165.191 C 51.845 165.282,52.143 165.412,52.507 165.481 C 52.871 165.549,53.169 165.674,53.169 165.758 C 53.169 165.842,53.425 165.967,53.737 166.036 C 54.049 166.105,54.305 166.229,54.305 166.313 C 54.305 166.397,54.688 166.523,55.156 166.594 C 55.624 166.664,56.008 166.792,56.008 166.878 C 56.008 166.963,56.391 167.091,56.859 167.161 C 57.327 167.232,57.711 167.359,57.711 167.445 C 57.711 167.531,58.094 167.659,58.562 167.729 C 59.030 167.799,59.413 167.928,59.413 168.016 C 59.413 168.103,59.924 168.234,60.549 168.307 C 61.173 168.379,61.684 168.508,61.684 168.594 C 61.684 168.679,62.237 168.809,62.914 168.881 C 63.590 168.954,64.144 169.079,64.144 169.160 C 64.144 169.241,64.846 169.369,65.705 169.445 C 66.563 169.520,67.313 169.656,67.370 169.746 C 67.428 169.837,68.854 169.967,70.540 170.037 C 72.225 170.106,73.605 170.235,73.605 170.323 C 73.605 170.411,74.797 170.482,76.254 170.482 C 77.711 170.482,78.903 170.411,78.903 170.323 C 78.903 170.235,80.282 170.106,81.967 170.037 C 83.653 169.967,85.079 169.838,85.137 169.748 C 85.194 169.659,85.901 169.525,86.708 169.450 C 87.514 169.376,88.174 169.248,88.174 169.166 C 88.174 169.085,88.770 168.959,89.499 168.887 C 90.227 168.815,90.823 168.686,90.823 168.601 C 90.823 168.515,91.290 168.386,91.861 168.315 C 92.432 168.244,92.943 168.114,92.997 168.026 C 93.051 167.938,93.435 167.809,93.851 167.739 C 94.266 167.669,94.649 167.541,94.702 167.455 C 94.755 167.369,95.139 167.241,95.554 167.171 C 95.970 167.101,96.310 166.977,96.310 166.895 C 96.310 166.813,96.651 166.692,97.067 166.626 C 97.483 166.559,97.824 166.430,97.824 166.339 C 97.824 166.247,98.122 166.117,98.486 166.048 C 98.851 165.980,99.149 165.854,99.149 165.768 C 99.149 165.682,99.489 165.557,99.905 165.490 C 100.322 165.424,100.662 165.292,100.662 165.197 C 100.662 165.103,100.918 164.969,101.230 164.901 C 101.542 164.832,101.798 164.704,101.798 164.617 C 101.798 164.529,102.053 164.402,102.365 164.333 C 102.677 164.264,102.933 164.139,102.933 164.055 C 102.933 163.970,103.166 163.842,103.451 163.771 C 103.736 163.699,104.013 163.584,104.066 163.514 C 104.119 163.444,104.567 163.189,105.061 162.948 C 105.556 162.706,105.960 162.437,105.960 162.348 C 105.960 162.260,106.216 162.131,106.528 162.062 C 106.840 161.994,107.096 161.861,107.096 161.767 C 107.096 161.673,107.308 161.543,107.569 161.478 C 107.829 161.413,108.042 161.304,108.042 161.237 C 108.042 161.169,108.276 161.009,108.562 160.879 C 109.013 160.676,110.908 159.346,111.581 158.761 C 111.707 158.651,111.891 158.562,111.990 158.562 C 112.090 158.562,112.386 158.307,112.648 157.994 C 112.911 157.682,113.210 157.427,113.313 157.427 C 113.416 157.427,113.755 157.171,114.067 156.859 C 114.380 156.547,114.692 156.291,114.762 156.291 C 114.932 156.291,121.476 149.740,121.476 149.569 C 121.476 149.496,121.808 149.113,122.214 148.719 C 122.620 148.325,123.009 147.824,123.078 147.606 C 123.148 147.388,123.286 147.209,123.387 147.209 C 123.487 147.209,123.624 147.060,123.691 146.878 C 123.758 146.696,124.001 146.369,124.231 146.151 C 124.460 145.933,124.704 145.579,124.772 145.364 C 124.840 145.149,125.021 144.926,125.173 144.867 C 125.325 144.809,125.449 144.631,125.449 144.471 C 125.449 144.312,125.533 144.182,125.635 144.182 C 125.737 144.182,125.872 143.975,125.936 143.722 C 125.999 143.470,126.171 143.217,126.318 143.161 C 126.465 143.104,126.585 142.928,126.585 142.768 C 126.585 142.609,126.670 142.479,126.774 142.479 C 126.878 142.479,126.963 142.357,126.963 142.208 C 126.963 142.060,127.070 141.823,127.200 141.681 C 127.671 141.169,130.749 135.173,130.748 134.768 C 130.748 134.638,130.823 134.532,130.916 134.532 C 131.008 134.532,131.140 134.234,131.208 133.869 C 131.276 133.505,131.403 133.207,131.489 133.207 C 131.575 133.207,131.700 132.867,131.766 132.450 C 131.833 132.034,131.966 131.693,132.063 131.693 C 132.159 131.693,132.295 131.310,132.366 130.842 C 132.436 130.374,132.564 129.991,132.649 129.991 C 132.735 129.991,132.863 129.607,132.933 129.139 C 133.003 128.671,133.125 128.288,133.204 128.288 C 133.283 128.288,133.404 127.862,133.473 127.342 C 133.542 126.821,133.673 126.395,133.763 126.395 C 133.853 126.395,133.986 125.884,134.059 125.260 C 134.131 124.635,134.262 124.080,134.350 124.026 C 134.438 123.971,134.568 123.333,134.640 122.607 C 134.711 121.881,134.836 121.287,134.916 121.287 C 134.997 121.287,135.125 120.371,135.200 119.253 C 135.275 118.134,135.420 117.166,135.521 117.101 C 135.769 116.943,135.775 105.200,135.527 105.039 C 135.427 104.973,135.286 103.986,135.213 102.844 C 135.141 101.702,135.013 100.723,134.930 100.668 C 134.846 100.613,134.718 99.974,134.645 99.248 C 134.572 98.523,134.442 97.884,134.356 97.829 C 134.269 97.774,134.138 97.197,134.063 96.547 C 133.988 95.896,133.856 95.364,133.770 95.364 C 133.684 95.364,133.554 94.896,133.483 94.324 C 133.411 93.751,133.283 93.283,133.197 93.283 C 133.111 93.283,132.984 92.900,132.913 92.431 C 132.843 91.963,132.720 91.580,132.639 91.580 C 132.558 91.580,132.437 91.286,132.370 90.926 C 132.302 90.566,132.123 90.034,131.971 89.743 C 131.820 89.453,131.695 89.066,131.695 88.884 C 131.694 88.702,131.615 88.553,131.519 88.553 C 131.423 88.553,131.291 88.305,131.224 88.003 C 131.158 87.701,130.939 87.130,130.736 86.733 C 130.534 86.337,130.369 85.903,130.369 85.769 C 130.369 85.635,130.291 85.525,130.195 85.525 C 130.099 85.525,129.965 85.270,129.896 84.957 C 129.827 84.645,129.700 84.390,129.612 84.390 C 129.525 84.390,129.397 84.134,129.328 83.822 C 129.260 83.510,129.134 83.254,129.050 83.254 C 128.965 83.254,128.838 83.021,128.766 82.736 C 128.695 82.451,128.579 82.174,128.509 82.121 C 128.389 82.030,128.191 81.681,127.299 79.991 C 127.093 79.600,126.858 79.281,126.775 79.281 C 126.693 79.281,126.572 79.068,126.507 78.808 C 126.442 78.548,126.305 78.335,126.203 78.335 C 126.101 78.335,126.017 78.205,126.017 78.045 C 126.017 77.886,125.897 77.709,125.750 77.653 C 125.604 77.597,125.432 77.344,125.368 77.091 C 125.305 76.839,125.169 76.632,125.067 76.632 C 124.965 76.632,124.882 76.508,124.882 76.358 C 124.882 76.207,124.775 76.015,124.643 75.932 C 124.512 75.849,124.193 75.462,123.934 75.072 C 123.675 74.683,123.399 74.363,123.321 74.363 C 123.243 74.362,123.179 74.251,123.179 74.116 C 123.179 73.981,122.927 73.662,122.619 73.406 C 122.311 73.151,122.056 72.871,122.052 72.784 C 122.044 72.633,121.424 71.920,120.293 70.761 C 120.007 70.468,119.773 70.173,119.773 70.107 C 119.773 69.958,117.781 68.039,116.824 67.266 C 116.438 66.954,115.849 66.421,115.516 66.083 C 115.182 65.745,114.845 65.468,114.765 65.468 C 114.685 65.468,114.289 65.128,113.885 64.711 C 113.481 64.295,113.079 63.955,112.991 63.955 C 112.903 63.955,112.677 63.784,112.488 63.576 C 112.300 63.368,112.062 63.198,111.960 63.198 C 111.858 63.198,111.577 62.985,111.336 62.725 C 111.095 62.465,110.822 62.252,110.729 62.252 C 110.580 62.252,110.299 62.049,109.421 61.309 C 109.296 61.203,109.117 61.116,109.025 61.116 C 108.877 61.116,108.665 60.964,107.743 60.197 C 107.631 60.104,107.333 59.963,107.081 59.884 C 106.829 59.805,106.580 59.688,106.528 59.624 C 106.374 59.435,105.715 59.038,105.156 58.797 C 104.870 58.674,104.636 58.514,104.636 58.441 C 104.636 58.368,104.380 58.252,104.068 58.184 C 103.756 58.115,103.500 57.987,103.500 57.900 C 103.500 57.812,103.245 57.684,102.933 57.616 C 102.621 57.547,102.365 57.420,102.365 57.332 C 102.365 57.245,102.110 57.117,101.798 57.048 C 101.485 56.980,101.230 56.852,101.230 56.764 C 101.230 56.677,100.974 56.549,100.662 56.481 C 100.350 56.412,100.095 56.288,100.095 56.206 C 100.095 56.123,99.754 56.001,99.338 55.935 C 98.921 55.868,98.581 55.735,98.581 55.638 C 98.581 55.542,98.198 55.406,97.729 55.335 C 97.261 55.265,96.878 55.136,96.878 55.049 C 96.878 54.961,96.580 54.834,96.216 54.765 C 95.851 54.697,95.553 54.575,95.553 54.494 C 95.553 54.414,95.170 54.290,94.702 54.220 C 94.234 54.150,93.851 54.031,93.851 53.955 C 93.851 53.880,93.404 53.721,92.857 53.601 C 90.245 53.029,89.042 52.602,90.048 52.602 C 90.141 52.602,90.278 52.091,90.350 51.466 C 90.423 50.842,90.550 50.331,90.634 50.331 C 90.718 50.331,90.845 49.820,90.918 49.196 C 90.990 48.571,91.123 48.061,91.214 48.061 C 91.304 48.061,91.434 47.635,91.503 47.114 C 91.572 46.594,91.703 46.168,91.794 46.168 C 91.884 46.168,91.959 46.019,91.960 45.837 C 91.960 45.655,92.075 45.288,92.214 45.021 C 92.354 44.753,92.529 44.285,92.604 43.980 C 92.679 43.675,92.941 42.996,93.187 42.473 C 93.432 41.949,93.691 41.289,93.762 41.006 C 93.833 40.723,93.958 40.492,94.038 40.492 C 94.119 40.492,94.234 40.343,94.293 40.161 C 94.353 39.979,94.618 39.489,94.881 39.073 C 95.145 38.657,95.444 38.124,95.547 37.890 C 95.649 37.656,95.821 37.465,95.927 37.465 C 96.034 37.465,96.121 37.336,96.121 37.179 C 96.121 37.022,96.291 36.747,96.500 36.569 C 96.708 36.391,96.878 36.174,96.878 36.086 C 96.878 35.895,99.235 33.491,99.423 33.491 C 99.496 33.491,99.812 33.236,100.124 32.923 C 100.436 32.611,100.791 32.352,100.913 32.348 C 101.035 32.343,101.344 32.088,101.599 31.780 C 101.855 31.472,102.138 31.220,102.229 31.220 C 102.320 31.220,102.778 30.837,103.247 30.369 C 103.715 29.901,104.198 29.514,104.320 29.509 C 104.441 29.504,104.711 29.281,104.920 29.012 C 105.128 28.744,105.575 28.206,105.913 27.816 C 106.251 27.426,106.528 27.010,106.528 26.893 C 106.528 26.775,106.604 26.679,106.698 26.679 C 106.901 26.679,107.663 25.267,107.663 24.892 C 107.663 24.747,107.748 24.601,107.851 24.566 C 107.954 24.532,108.093 23.971,108.161 23.321 C 108.229 22.670,108.358 22.138,108.447 22.138 C 108.536 22.138,108.609 21.712,108.609 21.192 C 108.609 20.672,108.535 20.246,108.443 20.246 C 108.352 20.246,108.238 19.770,108.190 19.188 C 108.142 18.606,108.015 18.074,107.908 18.005 C 107.802 17.937,107.649 17.671,107.568 17.414 C 107.380 16.812,105.988 15.420,105.386 15.232 C 105.129 15.152,104.872 15.013,104.814 14.923 C 104.688 14.728,102.220 14.578,101.088 14.696 M96.133 63.480 C 129.745 67.872,144.122 116.877,117.669 136.890 C 89.204 158.424,49.284 122.230,61.434 85.904 C 61.922 84.447,61.986 84.287,63.009 82.025 C 68.820 69.170,82.228 61.664,96.133 63.480 M90.586 67.559 C 67.140 70.288,57.624 101.790,73.756 123.270 C 76.091 126.378,82.581 132.450,83.569 132.450 C 83.640 132.450,83.832 132.569,83.996 132.713 C 85.827 134.325,92.314 136.694,96.459 137.265 C 112.471 139.470,126.805 127.510,128.649 110.407 C 129.049 106.694,129.069 105.450,128.778 102.460 C 126.704 81.149,109.431 65.365,90.586 67.559 " stroke="none" fill="#0e88fc" fill-rule="evenodd"></path><path id="path1" d="M87.417 63.499 C 76.856 65.030,67.472 72.152,63.009 82.025 C 61.986 84.287,61.922 84.447,61.434 85.904 C 55.226 104.466,62.753 126.163,79.189 137.084 C 103.056 152.943,131.371 136.670,131.371 107.096 C 131.371 81.526,109.910 60.239,87.417 63.499 M97.729 67.553 C 121.187 70.164,136.249 99.863,125.221 121.760 C 118.945 134.221,105.549 140.192,92.358 136.407 C 89.369 135.550,85.052 133.643,83.996 132.713 C 83.832 132.569,83.640 132.450,83.569 132.450 C 83.136 132.450,79.402 129.394,77.467 127.456 C 54.167 104.121,67.668 64.207,97.729 67.553 " stroke="none" fill="#f9fbfc" fill-rule="evenodd"></path><path id="path2" d="M212.630 62.198 C 211.928 62.237,211.353 62.350,211.353 62.450 C 211.353 62.549,211.225 62.630,211.069 62.630 C 210.762 62.630,210.624 103.913,210.930 104.371 C 211.129 104.670,214.272 104.863,216.475 104.711 L 218.354 104.582 218.354 88.881 C 218.354 71.473,218.252 72.625,219.605 74.749 C 220.000 75.368,220.390 75.875,220.473 75.875 C 220.556 75.875,220.624 76.006,220.624 76.165 C 220.624 76.324,220.752 76.504,220.908 76.564 C 221.064 76.623,221.192 76.792,221.192 76.938 C 221.192 77.084,221.362 77.349,221.570 77.527 C 221.779 77.706,221.949 77.953,221.949 78.077 C 221.949 78.202,222.013 78.332,222.091 78.366 C 222.269 78.446,223.084 79.599,223.084 79.772 C 223.084 79.842,223.287 80.088,223.535 80.318 C 223.783 80.548,224.044 80.919,224.116 81.144 C 224.187 81.368,224.324 81.552,224.421 81.552 C 224.519 81.552,224.598 81.682,224.598 81.841 C 224.598 82.001,224.726 82.180,224.882 82.240 C 225.038 82.300,225.166 82.428,225.166 82.526 C 225.166 82.734,225.954 83.889,226.159 83.980 C 226.237 84.015,226.301 84.124,226.301 84.224 C 226.301 84.436,227.087 85.591,227.294 85.683 C 227.372 85.717,227.436 85.869,227.436 86.020 C 227.436 86.171,227.556 86.340,227.703 86.396 C 227.850 86.452,228.022 86.705,228.085 86.958 C 228.148 87.211,228.284 87.417,228.386 87.417 C 228.488 87.417,228.571 87.548,228.571 87.707 C 228.571 87.866,228.691 88.043,228.838 88.099 C 228.985 88.155,229.157 88.408,229.220 88.661 C 229.284 88.913,229.419 89.120,229.521 89.120 C 229.623 89.120,229.707 89.251,229.707 89.410 C 229.707 89.569,229.827 89.746,229.973 89.802 C 230.120 89.858,230.292 90.111,230.355 90.364 C 230.419 90.616,230.554 90.823,230.656 90.823 C 230.758 90.823,230.842 90.953,230.842 91.113 C 230.842 91.272,230.965 91.450,231.114 91.507 C 231.264 91.565,231.441 91.860,231.508 92.163 C 231.574 92.467,231.706 92.715,231.800 92.715 C 231.893 92.715,232.022 92.922,232.085 93.175 C 232.149 93.427,232.321 93.680,232.467 93.736 C 232.614 93.793,232.734 93.969,232.734 94.128 C 232.734 94.288,232.818 94.418,232.920 94.418 C 233.022 94.418,233.159 94.631,233.224 94.891 C 233.289 95.151,233.419 95.364,233.512 95.364 C 233.604 95.364,233.680 95.495,233.680 95.654 C 233.680 95.813,233.803 95.991,233.952 96.048 C 234.102 96.106,234.279 96.401,234.346 96.705 C 234.413 97.008,234.537 97.256,234.623 97.256 C 234.708 97.256,234.868 97.512,234.976 97.824 C 235.085 98.136,235.264 98.392,235.373 98.392 C 235.483 98.392,235.572 98.487,235.572 98.603 C 235.572 98.866,236.915 101.112,237.123 101.198 C 237.207 101.233,237.275 101.350,237.275 101.457 C 237.275 101.738,238.598 103.877,239.051 104.330 C 239.579 104.858,246.100 104.921,246.617 104.403 C 247.056 103.965,247.096 62.630,246.657 62.630 C 246.510 62.630,246.357 62.534,246.318 62.417 C 246.218 62.115,239.687 62.111,239.587 62.413 C 239.547 62.532,239.394 62.630,239.246 62.630 C 239.017 62.630,238.978 64.720,238.978 76.939 C 238.978 89.637,238.946 91.221,238.694 91.012 C 238.538 90.883,238.411 90.659,238.411 90.516 C 238.411 90.373,238.335 90.255,238.242 90.255 C 238.149 90.255,238.020 90.043,237.954 89.782 C 237.889 89.522,237.752 89.309,237.650 89.309 C 237.548 89.309,237.465 89.179,237.465 89.020 C 237.465 88.860,237.344 88.684,237.198 88.627 C 237.051 88.571,236.879 88.318,236.816 88.066 C 236.752 87.813,236.617 87.606,236.515 87.606 C 236.413 87.606,236.329 87.476,236.329 87.317 C 236.329 87.157,236.207 86.980,236.057 86.922 C 235.907 86.865,235.730 86.570,235.664 86.266 C 235.597 85.963,235.459 85.714,235.358 85.714 C 235.257 85.714,235.085 85.459,234.976 85.147 C 234.868 84.834,234.702 84.579,234.608 84.579 C 234.514 84.579,234.437 84.449,234.437 84.289 C 234.437 84.130,234.317 83.953,234.170 83.897 C 234.024 83.841,233.852 83.588,233.788 83.335 C 233.725 83.083,233.589 82.876,233.487 82.876 C 233.385 82.876,233.302 82.746,233.302 82.586 C 233.302 82.427,233.182 82.250,233.035 82.194 C 232.888 82.138,232.716 81.885,232.653 81.632 C 232.590 81.380,232.454 81.173,232.352 81.173 C 232.250 81.173,232.167 81.043,232.167 80.883 C 232.167 80.724,232.046 80.548,231.900 80.491 C 231.753 80.435,231.581 80.182,231.518 79.930 C 231.454 79.677,231.319 79.470,231.217 79.470 C 231.115 79.470,231.031 79.340,231.031 79.180 C 231.031 79.021,230.904 78.842,230.747 78.782 C 230.591 78.722,230.464 78.553,230.464 78.407 C 230.464 78.261,230.293 77.996,230.085 77.818 C 229.877 77.640,229.707 77.385,229.707 77.252 C 229.707 77.119,229.623 77.010,229.521 77.010 C 229.419 77.010,229.284 76.804,229.220 76.551 C 229.157 76.298,228.985 76.046,228.838 75.989 C 228.691 75.933,228.571 75.788,228.571 75.666 C 228.571 75.545,228.369 75.257,228.121 75.028 C 227.873 74.798,227.611 74.426,227.540 74.202 C 227.469 73.977,227.331 73.794,227.234 73.794 C 227.137 73.794,227.058 73.685,227.058 73.552 C 227.058 73.419,226.887 73.164,226.679 72.986 C 226.471 72.808,226.301 72.543,226.301 72.397 C 226.301 72.251,226.173 72.082,226.017 72.022 C 225.861 71.962,225.733 71.814,225.733 71.693 C 225.733 71.571,225.530 71.284,225.282 71.054 C 225.034 70.824,224.773 70.453,224.702 70.228 C 224.631 70.004,224.490 69.820,224.390 69.820 C 224.290 69.820,224.151 69.671,224.082 69.489 C 224.013 69.307,223.760 68.945,223.520 68.685 C 223.281 68.425,222.787 67.829,222.422 67.360 C 222.057 66.892,221.546 66.280,221.286 66.001 C 221.026 65.721,220.814 65.419,220.814 65.330 C 220.814 65.240,220.562 64.958,220.254 64.703 C 219.946 64.447,219.691 64.139,219.686 64.016 C 219.675 63.706,218.568 62.630,218.260 62.630 C 218.121 62.630,217.979 62.557,217.944 62.467 C 217.868 62.273,214.429 62.098,212.630 62.198 M180.322 62.535 C 180.322 62.692,180.243 62.819,180.147 62.819 C 180.052 62.819,179.917 63.075,179.849 63.387 C 179.780 63.699,179.652 63.955,179.565 63.955 C 179.477 63.955,179.350 64.210,179.281 64.522 C 179.212 64.834,179.089 65.090,179.006 65.090 C 178.924 65.090,178.803 65.423,178.738 65.831 C 178.673 66.238,178.555 66.600,178.477 66.635 C 178.265 66.729,177.483 68.395,177.483 68.753 C 177.483 68.924,177.405 69.063,177.309 69.063 C 177.213 69.063,177.079 69.319,177.010 69.631 C 176.942 69.943,176.817 70.199,176.733 70.199 C 176.648 70.199,176.524 70.497,176.455 70.861 C 176.387 71.225,176.251 71.523,176.153 71.523 C 176.054 71.523,175.920 71.864,175.853 72.280 C 175.787 72.696,175.662 73.037,175.576 73.037 C 175.490 73.037,175.363 73.335,175.295 73.699 C 175.227 74.063,175.095 74.361,175.003 74.361 C 174.910 74.361,174.834 74.468,174.833 74.598 C 174.833 74.728,174.713 75.063,174.567 75.342 C 174.422 75.621,174.245 76.111,174.175 76.430 C 174.105 76.749,173.979 77.010,173.894 77.010 C 173.810 77.010,173.685 77.308,173.617 77.673 C 173.549 78.037,173.421 78.335,173.334 78.335 C 173.246 78.335,173.117 78.718,173.047 79.186 C 172.977 79.655,172.840 80.038,172.744 80.038 C 172.647 80.038,172.514 80.378,172.447 80.795 C 172.381 81.211,172.261 81.552,172.182 81.552 C 172.103 81.552,171.982 81.850,171.914 82.214 C 171.846 82.578,171.718 82.876,171.631 82.876 C 171.543 82.876,171.414 83.259,171.344 83.728 C 171.274 84.196,171.137 84.579,171.041 84.579 C 170.944 84.579,170.811 84.920,170.744 85.336 C 170.678 85.752,170.557 86.093,170.475 86.093 C 170.393 86.093,170.269 86.433,170.199 86.849 C 170.129 87.264,170.003 87.647,169.920 87.698 C 169.837 87.749,169.712 88.090,169.644 88.456 C 169.575 88.821,169.443 89.120,169.350 89.120 C 169.257 89.120,169.124 89.503,169.053 89.972 C 168.983 90.440,168.856 90.823,168.770 90.823 C 168.684 90.823,168.556 91.206,168.486 91.675 C 168.416 92.143,168.288 92.526,168.202 92.526 C 168.116 92.526,167.988 92.909,167.918 93.377 C 167.848 93.846,167.720 94.229,167.634 94.229 C 167.549 94.229,167.421 94.612,167.351 95.080 C 167.280 95.549,167.155 95.932,167.072 95.932 C 166.989 95.932,166.861 96.294,166.788 96.736 C 166.715 97.178,166.591 97.625,166.512 97.729 C 166.434 97.833,166.308 98.259,166.233 98.675 C 166.158 99.092,166.027 99.518,165.941 99.622 C 165.856 99.726,165.675 100.364,165.539 101.041 C 165.403 101.717,165.228 102.316,165.150 102.372 C 165.072 102.428,164.952 102.947,164.884 103.526 L 164.761 104.577 166.754 104.706 C 171.645 105.022,172.750 104.676,173.061 102.728 C 173.127 102.320,173.246 101.987,173.327 101.987 C 173.408 101.987,173.533 101.561,173.605 101.041 C 173.676 100.520,173.809 100.095,173.900 100.095 C 173.990 100.095,174.121 99.669,174.190 99.149 C 174.259 98.628,174.380 98.202,174.459 98.202 C 174.538 98.202,174.660 97.819,174.730 97.351 C 174.800 96.883,174.928 96.500,175.014 96.500 C 175.100 96.500,175.227 96.116,175.298 95.648 C 175.368 95.180,175.496 94.797,175.581 94.797 C 175.667 94.797,175.795 94.413,175.865 93.945 L 175.993 93.094 177.022 93.094 C 177.588 93.094,178.051 93.009,178.051 92.904 C 178.051 92.784,179.533 92.715,182.119 92.715 C 184.357 92.715,186.187 92.789,186.187 92.880 C 186.187 92.971,186.954 93.105,187.890 93.178 C 188.827 93.251,189.593 93.380,189.593 93.464 C 189.593 93.548,190.147 93.676,190.823 93.749 C 191.500 93.821,192.053 93.949,192.053 94.033 C 192.053 94.117,192.436 94.243,192.904 94.314 C 193.373 94.384,193.756 94.512,193.756 94.598 C 193.756 94.685,193.980 94.812,194.253 94.880 C 194.982 95.063,195.791 95.963,195.939 96.757 C 196.011 97.138,196.140 97.493,196.226 97.547 C 196.312 97.600,196.440 98.025,196.510 98.491 C 196.580 98.957,196.702 99.338,196.780 99.338 C 196.859 99.338,196.980 99.763,197.049 100.284 C 197.118 100.804,197.249 101.230,197.340 101.230 C 197.430 101.230,197.563 101.656,197.635 102.176 C 197.706 102.696,197.842 103.169,197.936 103.228 C 198.031 103.286,198.108 103.480,198.108 103.659 C 198.108 104.703,204.984 105.355,205.938 104.401 C 206.274 104.066,206.351 103.500,206.061 103.500 C 205.961 103.500,205.822 103.075,205.753 102.554 C 205.684 102.034,205.563 101.608,205.484 101.608 C 205.405 101.608,205.284 101.225,205.213 100.757 C 205.143 100.289,205.015 99.905,204.930 99.905 C 204.844 99.905,204.715 99.437,204.644 98.865 C 204.572 98.292,204.440 97.824,204.350 97.824 C 204.260 97.824,204.128 97.441,204.058 96.973 C 203.988 96.504,203.858 96.121,203.769 96.121 C 203.681 96.121,203.552 95.695,203.483 95.175 C 203.414 94.655,203.293 94.229,203.214 94.229 C 203.135 94.229,203.013 93.846,202.943 93.377 C 202.872 92.909,202.745 92.526,202.659 92.526 C 202.573 92.526,202.445 92.143,202.375 91.675 C 202.305 91.206,202.177 90.823,202.091 90.823 C 202.005 90.823,201.878 90.440,201.807 89.972 C 201.737 89.503,201.601 89.120,201.504 89.120 C 201.408 89.120,201.275 88.780,201.208 88.363 C 201.141 87.947,201.020 87.606,200.939 87.606 C 200.857 87.606,200.733 87.266,200.662 86.850 C 200.592 86.433,200.474 86.093,200.401 86.093 C 200.327 86.093,200.154 85.582,200.015 84.957 C 199.877 84.333,199.689 83.822,199.598 83.822 C 199.507 83.822,199.429 83.631,199.426 83.396 C 199.422 83.162,199.255 82.630,199.054 82.214 C 198.853 81.798,198.685 81.360,198.682 81.242 C 198.678 81.124,198.548 80.783,198.393 80.485 C 198.237 80.187,198.110 79.794,198.109 79.612 C 198.108 79.430,198.023 79.281,197.919 79.281 C 197.815 79.281,197.729 79.087,197.729 78.850 C 197.729 78.613,197.613 78.251,197.470 78.046 C 197.327 77.841,197.150 77.396,197.076 77.058 C 197.003 76.719,196.875 76.443,196.792 76.443 C 196.710 76.443,196.588 76.102,196.521 75.686 C 196.455 75.270,196.320 74.929,196.222 74.929 C 196.124 74.929,195.988 74.631,195.919 74.267 C 195.851 73.903,195.726 73.605,195.642 73.605 C 195.558 73.605,195.432 73.343,195.361 73.024 C 195.291 72.705,195.115 72.215,194.969 71.936 C 194.823 71.657,194.704 71.322,194.703 71.192 C 194.703 71.062,194.626 70.956,194.534 70.956 C 194.441 70.956,194.310 70.658,194.241 70.293 C 194.173 69.929,194.043 69.631,193.952 69.631 C 193.861 69.631,193.730 69.376,193.661 69.063 C 193.593 68.751,193.468 68.496,193.384 68.496 C 193.299 68.496,193.174 68.198,193.106 67.833 C 193.038 67.469,192.907 67.171,192.816 67.171 C 192.725 67.171,192.595 66.916,192.526 66.604 C 192.457 66.291,192.324 66.036,192.229 66.036 C 192.135 66.036,192.003 65.695,191.936 65.279 C 191.870 64.863,191.748 64.522,191.665 64.522 C 191.583 64.522,191.459 64.267,191.391 63.955 C 191.322 63.642,191.194 63.387,191.107 63.387 C 191.019 63.387,190.892 63.132,190.823 62.819 L 190.698 62.252 185.510 62.252 C 181.024 62.252,180.322 62.290,180.322 62.535 M252.223 66.131 L 252.223 69.631 259.886 69.631 L 267.550 69.631 267.550 87.106 L 267.550 104.580 269.520 104.707 C 271.934 104.863,275.118 104.663,275.447 104.334 C 275.636 104.145,275.686 100.501,275.686 86.863 L 275.686 69.631 283.160 69.631 L 290.634 69.631 290.634 66.131 L 290.634 62.630 271.429 62.630 L 252.223 62.630 252.223 66.131 M185.740 69.395 C 185.800 69.577,185.968 69.994,186.113 70.322 C 186.258 70.650,186.377 71.012,186.377 71.126 C 186.377 71.240,186.452 71.334,186.545 71.334 C 186.637 71.334,186.769 71.632,186.837 71.996 C 186.905 72.360,187.036 72.658,187.127 72.658 C 187.218 72.658,187.350 72.920,187.420 73.239 C 187.490 73.558,187.667 74.048,187.812 74.327 C 187.958 74.606,188.078 74.941,188.078 75.071 C 188.079 75.201,188.155 75.307,188.248 75.307 C 188.340 75.307,188.472 75.605,188.540 75.970 C 188.608 76.334,188.735 76.632,188.821 76.632 C 188.907 76.632,189.032 76.973,189.098 77.389 C 189.165 77.805,189.294 78.146,189.385 78.146 C 189.476 78.146,189.607 78.444,189.675 78.808 C 189.744 79.172,189.871 79.470,189.959 79.470 C 190.046 79.470,190.175 79.853,190.246 80.322 C 190.316 80.790,190.446 81.173,190.536 81.173 C 190.625 81.173,190.758 81.450,190.830 81.788 C 190.902 82.126,191.027 82.488,191.107 82.592 C 191.187 82.696,191.312 83.058,191.384 83.396 C 191.456 83.735,191.584 84.011,191.668 84.011 C 191.752 84.011,191.878 84.395,191.948 84.863 C 192.019 85.331,192.147 85.714,192.233 85.714 C 192.319 85.714,192.445 86.012,192.514 86.377 C 192.582 86.741,192.719 87.039,192.818 87.039 C 192.918 87.039,192.999 87.124,192.999 87.228 C 192.999 87.498,191.607 87.463,191.330 87.187 C 191.027 86.883,181.686 86.862,181.491 87.164 C 181.420 87.274,180.724 87.426,179.943 87.501 C 179.163 87.577,178.404 87.738,178.256 87.859 C 178.030 88.045,178.007 87.963,178.108 87.338 C 178.173 86.930,178.307 86.547,178.405 86.486 C 178.504 86.425,178.644 86.056,178.717 85.664 C 178.791 85.273,178.926 84.907,179.019 84.850 C 179.111 84.793,179.189 84.602,179.193 84.426 C 179.196 84.250,179.364 83.765,179.565 83.349 C 179.766 82.933,179.933 82.401,179.937 82.167 C 179.940 81.932,180.022 81.741,180.117 81.741 C 180.213 81.741,180.352 81.464,180.425 81.126 C 180.499 80.788,180.676 80.343,180.819 80.138 C 180.962 79.932,181.079 79.571,181.079 79.333 C 181.079 79.096,181.164 78.903,181.268 78.903 C 181.372 78.903,181.457 78.754,181.458 78.571 C 181.459 78.389,181.578 78.012,181.724 77.733 C 181.870 77.454,182.046 76.964,182.116 76.645 C 182.187 76.326,182.306 76.064,182.382 76.064 C 182.458 76.064,182.630 75.639,182.763 75.118 C 182.897 74.598,183.072 74.172,183.153 74.172 C 183.234 74.172,183.355 73.832,183.422 73.415 C 183.488 72.999,183.617 72.658,183.709 72.658 C 183.800 72.658,183.931 72.360,183.999 71.996 C 184.067 71.632,184.198 71.334,184.289 71.334 C 184.380 71.334,184.510 71.079,184.579 70.766 C 184.648 70.454,184.782 70.199,184.878 70.199 C 184.974 70.199,185.052 70.000,185.052 69.757 C 185.052 69.039,185.539 68.783,185.740 69.395 M181.883 116.683 C 181.440 116.729,181.079 116.839,181.079 116.927 C 181.079 117.015,180.568 117.146,179.943 117.219 C 179.319 117.291,178.808 117.423,178.808 117.512 C 178.808 117.602,178.510 117.730,178.146 117.799 C 177.781 117.867,177.483 117.992,177.483 118.076 C 177.483 118.160,177.228 118.285,176.916 118.354 C 176.604 118.422,176.348 118.550,176.348 118.638 C 176.348 118.725,176.093 118.853,175.781 118.921 C 175.468 118.990,175.213 119.115,175.213 119.200 C 175.213 119.284,175.000 119.407,174.740 119.472 C 174.480 119.538,174.267 119.674,174.267 119.777 C 174.267 119.879,174.136 119.962,173.977 119.962 C 173.818 119.962,173.638 120.090,173.578 120.246 C 173.518 120.402,173.359 120.530,173.224 120.530 C 172.963 120.530,169.158 124.229,169.158 124.483 C 169.158 124.566,168.988 124.788,168.780 124.976 C 168.571 125.165,168.401 125.433,168.401 125.573 C 168.401 125.713,168.329 125.828,168.242 125.828 C 167.737 125.828,165.624 131.002,165.426 132.727 C 165.365 133.251,165.223 133.741,165.109 133.815 C 164.818 134.004,164.820 142.441,165.112 142.628 C 165.228 142.702,165.383 143.324,165.455 144.010 C 165.527 144.697,165.709 145.494,165.859 145.782 C 166.008 146.070,166.133 146.446,166.137 146.616 C 166.141 146.786,166.308 147.266,166.509 147.682 C 166.710 148.098,166.877 148.545,166.881 148.675 C 166.885 148.806,166.951 148.914,167.029 148.916 C 167.107 148.918,167.384 149.385,167.644 149.953 C 167.904 150.521,168.181 150.987,168.259 150.989 C 168.337 150.992,168.401 151.117,168.401 151.268 C 168.401 151.419,168.510 151.610,168.642 151.694 C 168.775 151.777,169.023 152.065,169.193 152.334 C 169.596 152.967,172.293 155.665,172.927 156.067 C 173.195 156.237,173.483 156.485,173.567 156.618 C 173.650 156.751,173.834 156.859,173.977 156.859 C 174.119 156.859,174.264 156.924,174.298 157.003 C 174.354 157.131,176.780 158.355,177.767 158.754 C 178.857 159.194,180.332 159.547,181.486 159.644 C 182.199 159.703,182.781 159.825,182.781 159.914 C 182.781 160.125,186.702 160.126,186.832 159.915 C 186.887 159.827,187.631 159.700,188.486 159.634 C 189.340 159.569,190.088 159.440,190.148 159.348 C 190.207 159.257,190.660 159.123,191.154 159.050 C 191.649 158.977,192.053 158.837,192.053 158.740 C 192.053 158.642,192.231 158.562,192.450 158.562 C 192.668 158.562,193.072 158.440,193.348 158.291 C 193.625 158.142,194.520 157.695,195.338 157.297 C 197.387 156.302,197.729 156.106,197.729 155.923 C 197.729 155.836,197.942 155.711,198.202 155.646 C 198.463 155.581,198.675 155.444,198.675 155.342 C 198.675 155.240,198.846 155.156,199.054 155.156 C 199.408 155.156,199.432 155.282,199.432 157.143 L 199.432 159.130 200.273 159.130 C 200.735 159.130,201.166 159.215,201.230 159.319 C 201.294 159.423,201.853 159.508,202.471 159.508 C 203.094 159.508,203.595 159.424,203.595 159.319 C 203.595 159.215,203.872 159.128,204.210 159.127 C 204.548 159.126,205.017 159.073,205.251 159.010 L 205.676 158.896 205.676 147.565 L 205.676 136.235 196.026 136.235 L 186.377 136.235 186.377 139.451 L 186.377 142.668 192.526 142.668 L 198.675 142.668 198.675 143.236 C 198.675 143.548,198.600 143.803,198.508 143.803 C 198.416 143.803,198.283 144.186,198.212 144.655 C 198.142 145.123,198.012 145.506,197.922 145.506 C 197.833 145.506,197.703 145.762,197.635 146.074 C 197.566 146.386,197.432 146.641,197.336 146.641 C 197.240 146.641,197.162 146.770,197.162 146.927 C 197.162 147.084,196.991 147.359,196.783 147.537 C 196.575 147.715,196.405 147.934,196.405 148.023 C 196.405 148.234,194.781 149.858,194.570 149.858 C 194.481 149.858,194.262 150.028,194.084 150.237 C 193.905 150.445,193.631 150.615,193.474 150.615 C 193.317 150.615,193.188 150.693,193.188 150.789 C 193.188 150.885,192.933 151.019,192.621 151.088 C 192.308 151.157,192.053 151.287,192.053 151.378 C 192.053 151.469,191.755 151.600,191.391 151.668 C 191.026 151.736,190.728 151.864,190.728 151.951 C 190.728 152.038,190.218 152.168,189.593 152.238 C 188.969 152.309,188.458 152.441,188.458 152.532 C 188.458 152.622,187.308 152.696,185.904 152.696 C 184.499 152.696,183.349 152.620,183.349 152.526 C 183.349 152.432,182.838 152.296,182.214 152.223 C 181.589 152.151,181.079 152.021,181.079 151.936 C 181.079 151.850,180.823 151.724,180.511 151.656 C 180.199 151.587,179.943 151.459,179.943 151.372 C 179.943 151.284,179.695 151.158,179.391 151.091 C 179.088 151.025,178.793 150.848,178.735 150.698 C 178.678 150.548,178.529 150.426,178.405 150.426 C 178.104 150.426,175.218 147.558,175.215 147.256 C 175.214 147.126,175.143 147.020,175.057 147.020 C 174.854 147.020,173.510 144.335,173.510 143.928 C 173.510 143.755,173.430 143.614,173.332 143.614 C 173.235 143.614,173.095 143.210,173.022 142.715 C 172.949 142.221,172.795 141.756,172.680 141.681 C 172.388 141.494,172.388 135.327,172.680 135.140 C 172.795 135.065,172.949 134.600,173.022 134.106 C 173.095 133.612,173.224 133.207,173.308 133.207 C 173.393 133.207,173.516 132.867,173.583 132.450 C 173.649 132.034,173.781 131.693,173.876 131.693 C 173.970 131.693,174.102 131.445,174.169 131.142 C 174.235 130.838,174.412 130.543,174.562 130.485 C 174.712 130.428,174.834 130.250,174.834 130.091 C 174.834 129.932,174.898 129.801,174.976 129.800 C 175.054 129.799,175.331 129.484,175.591 129.100 C 176.193 128.210,177.027 127.376,177.917 126.774 C 178.302 126.514,178.617 126.237,178.617 126.159 C 178.618 126.081,178.749 126.017,178.908 126.017 C 179.068 126.017,179.245 125.895,179.303 125.745 C 179.360 125.595,179.656 125.418,179.959 125.351 C 180.263 125.285,180.511 125.158,180.511 125.071 C 180.511 124.983,180.766 124.856,181.079 124.787 C 181.391 124.719,181.646 124.594,181.646 124.510 C 181.646 124.426,182.051 124.296,182.545 124.222 C 183.039 124.148,183.504 123.990,183.579 123.870 C 183.766 123.568,190.119 123.564,190.310 123.866 C 190.384 123.983,190.892 124.140,191.438 124.214 C 191.984 124.289,192.431 124.417,192.431 124.500 C 192.431 124.583,192.729 124.706,193.094 124.775 C 193.458 124.843,193.756 124.973,193.756 125.064 C 193.756 125.156,194.011 125.286,194.324 125.355 C 194.636 125.423,194.891 125.558,194.891 125.654 C 194.891 125.749,195.020 125.828,195.177 125.828 C 195.334 125.828,195.608 125.998,195.787 126.206 C 195.965 126.414,196.184 126.585,196.273 126.585 C 196.511 126.585,199.717 129.837,199.863 130.227 C 200.021 130.646,201.099 130.683,201.256 130.274 C 201.316 130.118,201.484 129.991,201.630 129.991 C 201.776 129.991,202.042 129.820,202.220 129.612 C 202.398 129.404,202.622 129.234,202.717 129.234 C 202.812 129.234,203.077 129.031,203.307 128.783 C 203.537 128.535,203.909 128.274,204.133 128.202 C 204.358 128.131,204.541 127.991,204.541 127.890 C 204.541 127.790,204.690 127.652,204.872 127.583 C 205.759 127.248,206.313 126.408,205.935 125.970 C 205.741 125.744,205.497 125.445,205.393 125.305 C 205.289 125.165,204.969 124.796,204.683 124.486 C 204.397 124.176,204.163 123.872,204.163 123.811 C 204.163 123.635,201.745 121.287,201.564 121.287 C 201.474 121.287,201.192 121.035,200.937 120.727 C 200.682 120.419,200.406 120.164,200.323 120.159 C 200.161 120.151,199.020 119.380,198.863 119.173 C 198.810 119.103,198.533 118.988,198.248 118.916 C 197.963 118.844,197.729 118.714,197.729 118.626 C 197.729 118.538,197.431 118.410,197.067 118.341 C 196.703 118.273,196.405 118.142,196.405 118.051 C 196.405 117.960,196.064 117.831,195.648 117.764 C 195.232 117.698,194.891 117.579,194.891 117.500 C 194.891 117.421,194.402 117.296,193.803 117.221 C 193.205 117.147,192.658 116.993,192.587 116.879 C 192.457 116.670,183.566 116.507,181.883 116.683 M270.530 116.684 C 270.140 116.730,269.820 116.839,269.820 116.924 C 269.820 117.010,269.352 117.139,268.780 117.210 C 268.207 117.282,267.739 117.410,267.739 117.495 C 267.739 117.580,267.441 117.705,267.077 117.774 C 266.712 117.842,266.414 117.968,266.414 118.054 C 266.414 118.140,266.074 118.265,265.658 118.332 C 265.241 118.398,264.901 118.530,264.901 118.625 C 264.901 118.719,264.652 118.851,264.349 118.918 C 264.045 118.985,263.750 119.162,263.693 119.311 C 263.635 119.461,263.458 119.584,263.298 119.584 C 263.139 119.584,263.009 119.667,263.009 119.769 C 263.009 119.871,262.802 120.007,262.549 120.070 C 262.297 120.134,262.044 120.306,261.987 120.452 C 261.931 120.599,261.795 120.719,261.686 120.719 C 261.412 120.719,257.332 124.733,257.332 125.003 C 257.332 125.122,257.204 125.269,257.048 125.329 C 256.892 125.388,256.764 125.568,256.764 125.727 C 256.764 125.887,256.681 126.017,256.579 126.017 C 256.477 126.017,256.340 126.230,256.274 126.490 C 256.209 126.750,256.080 126.963,255.987 126.963 C 255.894 126.963,255.818 127.056,255.818 127.170 C 255.818 127.283,255.648 127.593,255.440 127.858 C 255.232 128.122,255.061 128.540,255.061 128.786 C 255.061 129.032,254.976 129.234,254.872 129.234 C 254.768 129.234,254.680 129.340,254.677 129.470 C 254.673 129.600,254.506 130.047,254.305 130.464 C 254.104 130.880,253.936 131.438,253.933 131.703 C 253.929 131.968,253.844 132.267,253.744 132.368 C 253.644 132.468,253.509 133.060,253.445 133.683 C 253.381 134.306,253.246 134.989,253.144 135.201 C 252.513 136.517,253.349 143.617,254.417 146.008 C 254.563 146.336,254.683 146.740,254.683 146.907 C 254.683 147.073,254.761 147.209,254.857 147.209 C 254.953 147.209,255.088 147.465,255.156 147.777 C 255.225 148.089,255.350 148.344,255.434 148.344 C 255.519 148.344,255.647 148.578,255.718 148.863 C 255.790 149.148,255.905 149.425,255.975 149.478 C 256.167 149.623,256.954 150.772,256.954 150.906 C 256.954 150.970,257.209 151.278,257.521 151.590 C 257.833 151.902,258.089 152.221,258.089 152.299 C 258.089 152.512,260.119 154.548,260.701 154.918 C 260.982 155.096,261.279 155.350,261.362 155.483 C 261.446 155.615,261.598 155.724,261.702 155.724 C 261.805 155.724,262.120 155.939,262.402 156.203 C 262.683 156.466,263.105 156.731,263.340 156.791 C 263.574 156.851,263.765 156.967,263.765 157.048 C 263.765 157.130,263.978 157.250,264.238 157.315 C 264.499 157.380,264.711 157.514,264.711 157.611 C 264.711 157.708,265.009 157.844,265.374 157.912 C 265.738 157.981,266.036 158.111,266.036 158.202 C 266.036 158.294,266.377 158.423,266.793 158.489 C 267.209 158.556,267.550 158.677,267.550 158.759 C 267.550 158.840,267.912 158.967,268.354 159.040 C 268.796 159.113,269.246 159.243,269.353 159.329 C 269.879 159.751,276.220 160.243,276.903 159.915 C 277.118 159.811,277.926 159.676,278.699 159.613 C 279.472 159.550,280.196 159.426,280.308 159.336 C 280.419 159.246,280.873 159.113,281.315 159.040 C 281.757 158.967,282.119 158.829,282.119 158.735 C 282.119 158.640,282.313 158.562,282.550 158.562 C 282.787 158.562,283.149 158.446,283.354 158.304 C 283.560 158.162,283.936 157.980,284.190 157.901 C 284.743 157.728,286.539 156.653,286.629 156.441 C 286.664 156.359,286.815 156.291,286.966 156.291 C 287.117 156.291,287.289 156.164,287.349 156.008 C 287.409 155.851,287.570 155.724,287.707 155.724 C 287.844 155.724,288.211 155.468,288.523 155.156 C 288.836 154.844,289.152 154.588,289.225 154.588 C 289.413 154.588,291.202 152.753,291.202 152.560 C 291.202 152.473,291.446 152.188,291.744 151.926 C 292.042 151.664,292.344 151.270,292.413 151.050 C 292.483 150.830,292.665 150.602,292.817 150.544 C 292.969 150.485,293.094 150.307,293.094 150.148 C 293.094 149.988,293.170 149.858,293.262 149.858 C 293.355 149.858,293.484 149.645,293.550 149.385 C 293.615 149.125,293.745 148.912,293.839 148.912 C 293.933 148.912,294.066 148.657,294.134 148.344 C 294.203 148.032,294.334 147.777,294.425 147.777 C 294.516 147.777,294.646 147.479,294.714 147.114 C 294.783 146.750,294.913 146.452,295.005 146.452 C 295.096 146.452,295.225 146.112,295.292 145.695 C 295.358 145.279,295.477 144.939,295.556 144.939 C 295.635 144.939,295.760 144.449,295.835 143.851 C 295.909 143.252,296.068 142.702,296.188 142.627 C 296.489 142.440,296.493 133.943,296.192 133.567 C 296.075 133.421,295.921 132.897,295.850 132.403 C 295.778 131.909,295.649 131.504,295.563 131.504 C 295.477 131.504,295.350 131.121,295.280 130.653 C 295.209 130.184,295.079 129.801,294.989 129.801 C 294.900 129.801,294.771 129.546,294.702 129.234 C 294.633 128.921,294.506 128.666,294.418 128.666 C 294.331 128.666,294.203 128.411,294.134 128.098 C 294.066 127.786,293.938 127.531,293.851 127.531 C 293.763 127.531,293.635 127.275,293.567 126.963 C 293.498 126.651,293.377 126.395,293.297 126.395 C 293.217 126.395,293.075 126.235,292.981 126.039 C 292.582 125.205,288.382 120.719,288.001 120.719 C 287.871 120.719,287.579 120.505,286.716 119.776 C 286.590 119.670,286.404 119.584,286.303 119.584 C 286.202 119.584,286.003 119.477,285.861 119.347 C 285.398 118.925,284.041 118.259,283.643 118.259 C 283.429 118.259,283.254 118.178,283.254 118.079 C 283.254 117.979,282.956 117.842,282.592 117.774 C 282.228 117.705,281.930 117.582,281.930 117.499 C 281.930 117.416,281.483 117.288,280.937 117.213 C 280.390 117.139,279.883 116.982,279.809 116.865 C 279.673 116.650,272.066 116.502,270.530 116.684 M303.690 116.935 C 303.690 117.039,303.349 117.124,302.933 117.124 L 302.176 117.124 302.176 131.504 C 302.176 140.071,302.246 145.885,302.349 145.885 C 302.444 145.885,302.582 146.523,302.655 147.304 C 302.728 148.084,302.858 148.723,302.943 148.723 C 303.029 148.723,303.156 149.106,303.227 149.574 C 303.297 150.043,303.423 150.426,303.507 150.426 C 303.591 150.426,303.716 150.681,303.784 150.993 C 303.853 151.306,303.981 151.561,304.068 151.561 C 304.156 151.561,304.282 151.809,304.348 152.113 C 304.415 152.416,304.592 152.712,304.742 152.769 C 304.892 152.827,305.014 152.961,305.014 153.067 C 305.014 153.497,307.269 156.102,307.640 156.102 C 307.725 156.102,307.948 156.272,308.136 156.481 C 308.325 156.689,308.593 156.859,308.733 156.859 C 308.873 156.859,308.988 156.936,308.988 157.030 C 308.988 157.260,311.573 158.562,312.030 158.562 C 312.230 158.562,312.394 158.640,312.394 158.735 C 312.394 158.829,312.755 158.967,313.198 159.040 C 313.640 159.113,314.100 159.251,314.220 159.348 C 314.340 159.445,315.173 159.576,316.071 159.639 C 316.970 159.703,317.749 159.827,317.804 159.915 C 317.934 160.125,322.422 160.125,322.422 159.915 C 322.422 159.826,323.160 159.701,324.062 159.638 C 324.964 159.574,325.752 159.446,325.812 159.352 C 325.873 159.259,326.325 159.123,326.817 159.050 C 327.309 158.978,327.755 158.848,327.808 158.762 C 327.861 158.675,328.204 158.549,328.569 158.480 C 328.935 158.412,329.234 158.281,329.234 158.190 C 329.234 158.099,329.489 157.968,329.801 157.900 C 330.114 157.831,330.369 157.706,330.369 157.621 C 330.369 157.537,330.582 157.414,330.842 157.349 C 331.102 157.284,331.315 157.147,331.315 157.045 C 331.315 156.943,331.424 156.859,331.557 156.859 C 331.690 156.859,332.009 156.624,332.266 156.337 C 332.524 156.050,332.968 155.665,333.254 155.481 C 333.541 155.298,333.778 155.043,333.783 154.915 C 333.787 154.788,334.043 154.474,334.350 154.219 C 334.658 153.964,334.910 153.644,334.910 153.509 C 334.910 153.374,334.994 153.264,335.096 153.264 C 335.198 153.264,335.335 153.051,335.400 152.791 C 335.465 152.531,335.588 152.318,335.674 152.318 C 335.875 152.318,336.358 151.344,336.518 150.617 C 336.587 150.304,336.716 150.047,336.806 150.047 C 336.895 150.047,337.026 149.664,337.096 149.196 C 337.166 148.728,337.293 148.344,337.378 148.344 C 337.463 148.344,337.593 147.661,337.666 146.826 C 337.738 145.992,337.872 145.263,337.962 145.207 C 338.053 145.151,338.127 138.831,338.127 131.115 L 338.127 117.124 337.275 117.124 C 336.807 117.124,336.424 117.039,336.424 116.935 C 336.424 116.819,335.541 116.746,334.153 116.746 C 332.766 116.746,331.883 116.819,331.883 116.935 C 331.883 117.039,331.500 117.124,331.031 117.124 L 330.180 117.124 330.180 130.736 C 330.180 138.669,330.108 144.393,330.008 144.455 C 329.914 144.513,329.778 144.986,329.707 145.506 C 329.635 146.027,329.509 146.452,329.426 146.452 C 329.343 146.452,329.220 146.750,329.152 147.114 C 329.083 147.479,328.952 147.777,328.859 147.777 C 328.767 147.777,328.637 147.948,328.570 148.158 C 328.392 148.720,326.074 150.972,325.535 151.107 C 325.280 151.171,325.071 151.290,325.071 151.372 C 325.071 151.453,324.838 151.579,324.553 151.650 C 324.267 151.722,323.986 151.858,323.927 151.954 C 323.868 152.049,323.292 152.182,322.648 152.249 C 322.003 152.317,321.476 152.445,321.476 152.534 C 321.476 152.623,320.880 152.696,320.151 152.696 C 319.423 152.696,318.827 152.623,318.827 152.533 C 318.827 152.444,318.304 152.323,317.665 152.265 C 317.026 152.207,316.451 152.080,316.388 151.982 C 316.324 151.885,315.961 151.748,315.581 151.678 C 315.201 151.608,314.842 151.425,314.783 151.272 C 314.724 151.119,314.546 150.993,314.386 150.993 C 314.227 150.993,314.096 150.914,314.096 150.817 C 314.096 150.720,313.918 150.584,313.699 150.514 C 313.220 150.362,312.832 149.982,312.204 149.050 C 311.944 148.663,311.674 148.346,311.604 148.346 C 311.535 148.345,311.421 148.089,311.353 147.777 C 311.284 147.465,311.157 147.209,311.069 147.209 C 310.982 147.209,310.850 146.932,310.777 146.594 C 310.703 146.256,310.566 145.930,310.471 145.869 C 310.376 145.809,310.246 145.021,310.183 144.119 C 310.119 143.217,309.994 142.479,309.906 142.479 C 309.817 142.479,309.745 136.774,309.745 129.801 L 309.745 117.124 309.082 117.124 C 308.718 117.124,308.420 117.039,308.420 116.935 C 308.420 116.819,307.506 116.746,306.055 116.746 C 304.604 116.746,303.690 116.819,303.690 116.935 M213.623 138.110 L 213.623 159.130 214.180 159.130 C 214.486 159.130,214.789 159.215,214.853 159.319 C 214.922 159.430,216.018 159.508,217.502 159.508 C 218.986 159.508,220.083 159.430,220.151 159.319 C 220.216 159.215,220.519 159.130,220.825 159.130 L 221.381 159.130 221.381 151.183 L 221.381 143.236 224.693 143.236 C 226.514 143.236,228.004 143.308,228.004 143.397 C 228.004 143.486,228.614 143.610,229.359 143.673 C 230.105 143.735,230.765 143.865,230.826 143.960 C 230.887 144.056,231.213 144.194,231.552 144.268 C 231.890 144.341,232.167 144.470,232.167 144.555 C 232.167 144.639,232.379 144.762,232.640 144.827 C 232.900 144.892,233.113 145.029,233.113 145.131 C 233.113 145.233,233.211 145.317,233.330 145.317 C 233.533 145.317,235.572 147.299,235.572 147.496 C 235.572 147.612,236.902 149.357,237.084 149.480 C 237.161 149.532,237.284 149.766,237.357 150.000 C 237.430 150.234,237.569 150.426,237.666 150.426 C 237.764 150.426,237.843 150.556,237.843 150.715 C 237.843 150.875,237.971 151.054,238.127 151.114 C 238.283 151.174,238.411 151.336,238.411 151.473 C 238.411 151.611,238.517 151.836,238.647 151.973 C 238.777 152.111,239.081 152.628,239.323 153.122 C 239.564 153.616,239.834 154.021,239.923 154.021 C 240.011 154.021,240.140 154.276,240.208 154.588 C 240.277 154.901,240.404 155.156,240.492 155.156 C 240.579 155.156,240.707 155.412,240.776 155.724 C 240.844 156.036,240.979 156.291,241.075 156.291 C 241.170 156.291,241.249 156.413,241.249 156.562 C 241.249 156.710,241.355 156.945,241.485 157.082 C 241.615 157.220,241.919 157.737,242.161 158.231 C 242.574 159.076,242.644 159.130,243.343 159.130 C 243.752 159.130,244.087 159.215,244.087 159.319 C 244.087 159.436,245.124 159.508,246.819 159.508 C 248.437 159.508,249.600 159.431,249.669 159.319 C 249.733 159.215,250.062 159.130,250.399 159.130 C 251.581 159.130,251.741 158.556,250.899 157.332 C 250.587 156.878,250.331 156.416,250.331 156.305 C 250.331 156.193,250.248 156.102,250.146 156.102 C 250.043 156.102,249.906 155.889,249.841 155.629 C 249.776 155.369,249.647 155.156,249.554 155.156 C 249.461 155.156,249.385 155.026,249.385 154.866 C 249.385 154.707,249.265 154.531,249.118 154.474 C 248.972 154.418,248.800 154.165,248.736 153.913 C 248.673 153.660,248.537 153.453,248.435 153.453 C 248.333 153.453,248.250 153.323,248.250 153.163 C 248.250 153.004,248.130 152.828,247.983 152.771 C 247.836 152.715,247.664 152.462,247.601 152.210 C 247.538 151.957,247.402 151.750,247.300 151.750 C 247.198 151.750,247.114 151.620,247.114 151.460 C 247.114 151.301,246.987 151.122,246.831 151.062 C 246.675 151.002,246.547 150.833,246.547 150.687 C 246.547 150.541,246.377 150.276,246.168 150.098 C 245.960 149.920,245.790 149.696,245.790 149.601 C 245.790 149.506,245.577 149.231,245.317 148.990 C 245.057 148.749,244.844 148.467,244.844 148.363 C 244.844 148.258,244.546 147.884,244.182 147.530 C 243.817 147.176,243.519 146.823,243.519 146.745 C 243.519 146.585,241.682 144.749,241.521 144.749 C 241.464 144.749,241.145 144.494,240.813 144.183 C 240.480 143.871,240.102 143.615,239.972 143.615 C 239.842 143.614,239.735 143.535,239.735 143.439 C 239.735 143.257,237.833 142.289,237.476 142.289 C 236.841 142.289,237.426 141.904,238.221 141.799 C 238.742 141.730,239.167 141.610,239.167 141.533 C 239.167 141.456,239.527 141.345,239.968 141.286 C 240.408 141.227,240.798 141.088,240.835 140.977 C 240.872 140.866,241.038 140.776,241.205 140.776 C 241.627 140.776,243.141 140.023,243.141 139.813 C 243.141 139.718,243.225 139.640,243.329 139.640 C 243.702 139.640,245.790 137.922,245.790 137.615 C 245.790 137.526,245.960 137.308,246.168 137.130 C 246.377 136.952,246.547 136.677,246.547 136.520 C 246.547 136.363,246.623 136.235,246.717 136.235 C 246.946 136.235,247.682 134.799,247.682 134.352 C 247.682 134.156,247.774 133.965,247.885 133.928 C 247.997 133.891,248.137 133.330,248.196 132.682 C 248.254 132.034,248.376 131.504,248.465 131.504 C 248.678 131.504,248.678 127.962,248.465 127.831 C 248.376 127.775,248.258 127.174,248.203 126.493 C 248.149 125.813,248.019 125.151,247.915 125.022 C 247.811 124.893,247.667 124.510,247.594 124.172 C 247.522 123.834,247.391 123.557,247.304 123.557 C 247.216 123.557,247.090 123.309,247.023 123.005 C 246.957 122.702,246.780 122.407,246.630 122.349 C 246.480 122.292,246.358 122.150,246.358 122.035 C 246.358 121.765,244.853 120.263,244.418 120.099 C 244.236 120.030,244.087 119.895,244.087 119.799 C 244.087 119.703,243.874 119.571,243.614 119.506 C 243.354 119.441,243.141 119.308,243.141 119.210 C 243.141 119.113,242.843 118.977,242.479 118.909 C 242.114 118.841,241.816 118.713,241.816 118.625 C 241.816 118.537,241.497 118.407,241.107 118.335 C 240.717 118.263,240.352 118.136,240.297 118.052 C 240.243 117.969,239.604 117.840,238.878 117.768 C 238.153 117.695,237.498 117.542,237.424 117.427 C 237.329 117.280,233.797 117.200,225.456 117.154 L 213.623 117.090 213.623 138.110 M345.885 138.089 L 345.885 159.088 346.594 159.229 C 347.513 159.411,352.014 159.411,352.933 159.229 L 353.642 159.088 353.642 152.309 L 353.642 145.529 361.407 145.470 C 366.766 145.430,369.214 145.347,369.307 145.204 C 369.381 145.090,369.782 144.943,370.197 144.878 C 370.613 144.812,370.982 144.671,371.017 144.565 C 371.053 144.458,371.256 144.371,371.469 144.371 C 371.862 144.371,373.173 143.661,373.289 143.386 C 373.324 143.303,373.476 143.236,373.626 143.236 C 373.777 143.236,373.949 143.108,374.009 142.952 C 374.069 142.796,374.231 142.668,374.369 142.668 C 374.844 142.668,376.799 140.552,377.341 139.451 C 377.469 139.191,377.681 138.866,377.812 138.728 C 377.944 138.591,378.051 138.314,378.051 138.113 C 378.051 137.913,378.132 137.748,378.232 137.748 C 378.331 137.748,378.471 137.429,378.543 137.039 C 378.615 136.649,378.746 136.282,378.835 136.224 C 378.923 136.166,379.051 135.463,379.119 134.663 C 379.187 133.862,379.315 133.207,379.403 133.207 C 379.492 133.207,379.565 132.356,379.565 131.315 C 379.565 130.274,379.492 129.423,379.403 129.423 C 379.315 129.423,379.187 128.768,379.119 127.967 C 379.051 127.167,378.921 126.464,378.830 126.406 C 378.739 126.348,378.605 125.939,378.531 125.497 C 378.457 125.054,378.325 124.693,378.239 124.693 C 378.152 124.693,378.027 124.444,377.960 124.141 C 377.893 123.837,377.716 123.542,377.566 123.484 C 377.417 123.427,377.294 123.281,377.294 123.159 C 377.294 123.038,377.081 122.741,376.821 122.500 C 376.561 122.259,376.348 121.979,376.348 121.878 C 376.348 121.648,375.243 120.530,375.016 120.530 C 374.923 120.530,374.594 120.296,374.284 120.009 C 373.356 119.154,373.186 119.037,372.675 118.909 C 372.406 118.841,372.185 118.710,372.185 118.617 C 372.185 118.524,372.036 118.448,371.854 118.447 C 371.672 118.447,371.289 118.324,371.004 118.175 C 370.718 118.026,370.080 117.846,369.585 117.774 C 369.090 117.702,368.565 117.548,368.419 117.431 C 368.232 117.281,364.889 117.200,357.019 117.155 L 345.885 117.091 345.885 138.089 M235.383 123.909 C 235.383 123.999,235.824 124.124,236.362 124.188 C 236.901 124.252,237.390 124.380,237.450 124.473 C 237.510 124.566,237.772 124.707,238.032 124.787 C 238.742 125.006,240.095 126.447,240.231 127.127 C 240.297 127.453,240.425 127.720,240.516 127.720 C 240.607 127.720,240.681 128.571,240.681 129.612 C 240.681 130.747,240.605 131.504,240.492 131.504 C 240.388 131.504,240.303 131.655,240.303 131.838 C 240.303 132.678,238.389 135.099,237.726 135.099 C 237.582 135.099,237.465 135.178,237.465 135.274 C 237.465 135.369,237.188 135.508,236.850 135.581 C 236.511 135.654,236.184 135.794,236.122 135.891 C 236.061 135.987,235.528 136.116,234.940 136.177 C 234.351 136.238,233.869 136.361,233.869 136.450 C 233.869 136.540,231.060 136.613,227.625 136.613 L 221.381 136.613 221.381 130.180 L 221.381 123.746 228.382 123.746 C 232.233 123.746,235.383 123.820,235.383 123.909 M277.939 124.464 C 278.001 124.557,278.385 124.687,278.793 124.751 C 279.200 124.816,279.584 124.946,279.644 125.040 C 279.705 125.135,280.031 125.273,280.369 125.346 C 280.707 125.419,280.984 125.549,280.984 125.633 C 280.984 125.718,281.197 125.840,281.457 125.906 C 281.717 125.971,281.930 126.108,281.930 126.210 C 281.930 126.312,282.060 126.395,282.220 126.395 C 282.379 126.395,282.559 126.523,282.618 126.679 C 282.678 126.835,282.839 126.963,282.976 126.963 C 283.299 126.963,286.093 129.756,286.093 130.080 C 286.093 130.217,286.220 130.377,286.377 130.437 C 286.533 130.497,286.660 130.670,286.660 130.820 C 286.660 130.971,286.727 131.123,286.808 131.157 C 287.000 131.240,287.985 133.458,287.985 133.808 C 287.985 133.956,288.068 134.160,288.169 134.261 C 288.270 134.363,288.410 135.063,288.480 135.819 C 288.551 136.574,288.681 137.238,288.769 137.292 C 288.858 137.347,288.931 137.723,288.931 138.127 C 288.931 138.531,288.858 138.906,288.769 138.961 C 288.681 139.016,288.551 139.638,288.481 140.344 C 288.360 141.567,288.038 142.673,287.351 144.223 C 287.179 144.610,287.039 145.005,287.039 145.101 C 287.039 145.198,286.911 145.325,286.755 145.385 C 286.599 145.445,286.471 145.625,286.471 145.784 C 286.471 145.943,286.407 146.074,286.329 146.075 C 286.251 146.076,285.974 146.392,285.714 146.779 C 285.167 147.591,283.858 148.912,283.601 148.912 C 283.505 148.912,283.234 149.119,282.999 149.372 C 282.765 149.625,282.349 149.888,282.076 149.957 C 281.803 150.025,281.533 150.201,281.477 150.348 C 281.420 150.495,281.244 150.615,281.084 150.615 C 280.925 150.615,280.795 150.689,280.795 150.780 C 280.795 150.871,280.454 150.999,280.038 151.066 C 279.622 151.133,279.281 151.266,279.281 151.362 C 279.281 151.459,278.877 151.590,278.382 151.654 C 277.888 151.717,277.336 151.850,277.155 151.949 C 276.743 152.174,272.469 152.188,272.469 151.964 C 272.469 151.873,271.958 151.741,271.334 151.671 C 270.710 151.600,270.199 151.465,270.199 151.371 C 270.199 151.277,269.901 151.144,269.536 151.076 C 269.172 151.007,268.874 150.882,268.874 150.798 C 268.874 150.714,268.626 150.590,268.322 150.524 C 268.019 150.457,267.723 150.280,267.666 150.130 C 267.609 149.981,267.431 149.858,267.272 149.858 C 267.112 149.858,266.981 149.794,266.981 149.716 C 266.980 149.638,266.663 149.361,266.277 149.101 C 265.557 148.616,264.146 147.258,264.141 147.044 C 264.139 146.979,263.885 146.627,263.575 146.263 C 263.266 145.899,262.930 145.502,262.829 145.380 C 262.728 145.259,262.590 144.940,262.523 144.671 C 262.455 144.402,262.331 144.182,262.246 144.182 C 262.162 144.182,262.032 143.905,261.959 143.567 C 261.886 143.228,261.748 142.902,261.654 142.842 C 261.559 142.781,261.429 142.398,261.364 141.990 C 261.300 141.583,261.163 141.194,261.060 141.126 C 260.792 140.951,260.791 135.776,261.059 135.451 C 261.175 135.310,261.330 134.789,261.404 134.295 C 261.478 133.801,261.604 133.396,261.684 133.396 C 261.765 133.396,261.887 133.098,261.955 132.734 C 262.024 132.370,262.152 132.072,262.240 132.072 C 262.328 132.072,262.453 131.859,262.519 131.599 C 262.584 131.339,262.721 131.126,262.823 131.126 C 262.925 131.126,263.009 131.037,263.009 130.929 C 263.009 130.393,266.454 126.718,267.169 126.491 C 267.379 126.424,267.550 126.297,267.550 126.209 C 267.550 126.120,267.805 125.991,268.117 125.922 C 268.430 125.854,268.685 125.729,268.685 125.644 C 268.685 125.560,268.898 125.437,269.158 125.372 C 269.418 125.306,269.631 125.176,269.631 125.081 C 269.631 124.986,270.099 124.850,270.672 124.779 C 271.244 124.707,271.712 124.579,271.712 124.493 C 271.712 124.128,277.699 124.100,277.939 124.464 M366.849 124.430 C 366.922 124.542,367.316 124.687,367.724 124.751 C 368.131 124.816,368.515 124.945,368.575 125.039 C 368.635 125.132,368.881 125.270,369.120 125.345 C 369.659 125.513,370.786 126.620,370.953 127.143 C 371.020 127.356,371.150 127.531,371.241 127.531 C 371.331 127.531,371.463 127.914,371.533 128.382 C 371.603 128.851,371.736 129.234,371.828 129.234 C 371.921 129.234,371.996 130.170,371.996 131.315 C 371.996 132.460,371.921 133.396,371.828 133.396 C 371.736 133.396,371.603 133.780,371.533 134.248 C 371.463 134.716,371.325 135.099,371.228 135.099 C 371.130 135.099,371.050 135.220,371.050 135.368 C 371.050 135.718,369.398 137.370,369.048 137.370 C 368.901 137.370,368.780 137.448,368.780 137.544 C 368.780 137.640,368.503 137.778,368.165 137.852 C 367.826 137.925,367.498 138.066,367.436 138.164 C 367.373 138.262,366.500 138.392,365.496 138.452 C 364.492 138.512,363.671 138.633,363.671 138.722 C 363.671 138.811,361.414 138.884,358.657 138.884 L 353.642 138.884 353.642 131.483 L 353.642 124.082 360.179 124.154 C 364.574 124.202,366.759 124.292,366.849 124.430 " stroke="none" fill="#040404" fill-rule="evenodd"></path></g></svg>