<svg id="svg" version="1.1" xmlns="http://www.w3.org/2000/svg" xmlns:xlink="http://www.w3.org/1999/xlink" width="400" height="400" viewBox="0, 0, 400,400"><g id="svgg"><path id="path0" d="M0.000 200.000 L 0.000 400.000 200.000 400.000 L 400.000 400.000 400.000 200.000 L 400.000 0.000 200.000 0.000 L 0.000 0.000 0.000 200.000 M31.520 172.480 C 31.880 172.840,32.000 177.725,32.000 192.004 C 32.000 206.618,32.116 211.202,32.500 211.711 C 32.940 212.296,34.279 212.389,43.681 212.488 C 50.119 212.555,54.517 212.759,54.752 213.000 C 55.610 213.877,55.659 215.438,54.860 216.425 L 54.071 217.400 44.136 217.509 C 30.641 217.657,29.021 217.199,27.633 212.840 C 26.807 210.248,27.053 173.200,27.900 172.557 C 28.779 171.890,30.885 171.845,31.520 172.480 M133.520 172.480 C 133.880 172.840,134.000 177.704,134.000 191.906 C 134.000 204.202,134.145 211.124,134.414 211.626 C 134.807 212.361,135.357 212.400,145.338 212.400 C 153.129 212.400,156.016 212.529,156.502 212.900 C 157.588 213.730,157.750 215.326,156.861 216.425 L 156.072 217.400 145.536 217.497 L 135.000 217.594 132.800 216.497 C 129.245 214.724,129.418 215.872,129.276 193.062 C 129.159 174.209,129.192 173.093,129.876 172.574 C 130.776 171.892,132.878 171.838,133.520 172.480 M265.100 173.563 C 267.765 174.887,268.546 176.717,266.995 178.005 C 266.342 178.546,261.803 177.852,261.365 177.143 C 260.905 176.399,254.425 176.774,251.747 177.700 C 238.772 182.186,236.760 205.190,248.800 211.387 C 252.091 213.081,259.818 213.322,263.361 211.842 L 264.800 211.241 264.800 205.044 C 264.800 197.657,265.341 198.261,258.479 197.990 C 252.786 197.765,252.412 197.618,252.412 195.600 C 252.412 193.458,252.615 193.400,260.085 193.400 C 270.166 193.400,270.092 193.307,269.914 205.692 C 269.770 215.664,270.069 215.279,260.600 217.670 C 258.685 218.154,251.829 217.885,251.109 217.298 C 250.829 217.069,249.790 216.648,248.800 216.361 C 246.307 215.638,240.000 210.743,240.000 209.530 C 240.000 209.368,239.575 208.609,239.056 207.844 C 231.060 196.062,237.828 177.319,251.800 172.552 C 254.818 171.522,262.108 172.076,265.100 173.563 M277.905 172.434 C 278.741 172.955,278.830 214.849,277.999 216.401 C 277.324 217.663,274.898 217.510,274.390 216.174 C 273.785 214.581,273.870 173.090,274.480 172.480 C 275.078 171.882,276.981 171.856,277.905 172.434 M315.920 172.480 C 316.260 172.820,316.402 175.238,316.406 180.780 C 316.414 190.202,316.087 189.552,320.808 189.539 C 325.558 189.527,327.982 190.075,330.345 191.697 C 341.083 199.066,336.357 216.886,323.400 217.883 C 320.160 218.133,313.670 216.911,312.499 215.831 C 311.763 215.153,311.758 172.800,312.494 172.334 C 313.260 171.847,315.378 171.938,315.920 172.480 M371.920 172.480 C 372.580 173.140,372.612 214.696,371.954 216.140 C 370.638 219.029,368.047 217.502,367.985 213.800 C 367.732 198.614,367.998 173.085,368.414 172.583 C 368.999 171.879,371.253 171.813,371.920 172.480 M62.997 181.996 C 64.147 183.267,63.675 186.862,62.270 187.533 C 60.075 188.581,58.800 187.569,58.800 184.781 C 58.800 181.337,61.050 179.845,62.997 181.996 M165.400 184.617 C 165.400 186.806,165.316 187.030,164.308 187.513 C 161.314 188.948,159.152 183.754,161.858 181.626 C 163.756 180.133,165.400 181.521,165.400 184.617 M85.394 190.052 C 90.614 191.457,91.738 194.332,91.757 206.324 C 91.773 216.392,92.072 215.515,88.200 216.749 C 82.904 218.437,77.107 218.184,72.800 216.076 C 66.228 212.861,66.299 204.368,72.924 201.075 C 74.993 200.046,83.814 198.790,84.778 199.387 C 84.991 199.518,85.475 199.153,85.853 198.575 C 88.373 194.729,78.999 192.247,73.094 195.196 C 70.272 196.605,69.007 195.018,70.441 191.869 C 71.457 189.639,80.000 188.601,85.394 190.052 M112.640 189.751 C 119.790 191.032,121.600 194.657,121.600 207.699 C 121.600 216.330,121.369 217.200,119.076 217.200 C 116.689 217.200,116.618 216.920,116.400 206.659 L 116.200 197.251 115.023 196.023 C 112.318 193.201,105.338 193.273,101.957 196.158 L 100.600 197.315 100.400 206.758 C 100.181 217.103,100.160 217.200,98.190 217.200 C 96.054 217.200,96.000 216.859,96.000 203.475 C 96.000 189.608,95.803 190.352,99.456 190.418 C 100.745 190.441,103.150 190.193,104.800 189.866 C 108.526 189.128,109.117 189.120,112.640 189.751 M187.372 190.047 C 192.946 191.546,194.950 198.916,193.691 213.288 L 193.491 215.575 191.646 216.223 C 190.631 216.579,189.490 217.034,189.110 217.232 C 186.618 218.538,179.004 217.988,174.987 216.211 C 170.190 214.090,168.464 208.237,171.390 204.014 C 173.366 201.163,175.725 200.202,182.329 199.559 C 188.474 198.961,189.103 198.567,187.796 196.141 C 186.460 193.660,178.962 193.137,175.248 195.266 C 172.780 196.681,170.984 194.645,172.388 192.023 C 173.670 189.627,181.819 188.552,187.372 190.047 M214.640 189.751 C 219.131 190.556,221.581 192.739,222.808 197.029 C 223.777 200.417,224.000 214.946,223.100 216.074 C 221.981 217.477,220.319 217.637,218.800 216.487 C 218.690 216.403,218.510 212.041,218.400 206.793 L 218.200 197.251 217.023 196.023 C 214.356 193.241,207.121 193.286,204.000 196.103 L 202.600 197.367 202.477 206.583 C 202.342 216.760,202.157 217.600,200.055 217.600 C 198.130 217.600,198.000 216.724,198.000 203.755 C 198.000 189.884,197.883 190.355,201.321 190.424 C 202.684 190.451,205.060 190.204,206.600 189.874 C 210.083 189.129,211.083 189.114,214.640 189.751 M298.852 189.767 C 309.412 192.292,310.692 211.422,300.655 216.716 C 297.844 218.199,292.005 218.291,290.212 216.881 C 289.596 216.396,288.867 216.000,288.593 216.000 C 287.184 216.000,284.417 211.898,283.736 208.800 C 281.681 199.466,285.307 190.625,291.531 189.788 C 292.559 189.650,293.580 189.475,293.800 189.400 C 294.662 189.105,296.703 189.253,298.852 189.767 M357.208 190.002 C 362.410 191.494,363.600 194.653,363.600 206.971 C 363.600 216.204,363.884 215.469,359.800 216.820 C 353.638 218.860,344.901 217.639,342.066 214.341 C 335.496 206.698,343.979 197.916,356.583 199.313 C 359.086 199.591,358.382 195.653,355.731 194.545 C 353.189 193.483,345.882 194.061,344.511 195.432 C 342.900 197.043,341.463 194.995,342.185 192.118 C 342.770 189.787,351.948 188.494,357.208 190.002 M165.497 190.800 C 165.919 190.800,165.530 215.936,165.100 216.483 C 164.243 217.574,163.017 217.686,161.863 216.778 L 160.800 215.942 160.800 203.404 L 160.800 190.867 161.900 190.495 C 162.530 190.282,163.511 190.268,164.197 190.462 C 164.856 190.648,165.441 190.800,165.497 190.800 M63.119 190.741 C 63.655 191.082,63.888 214.784,63.368 216.139 C 62.903 217.352,60.905 217.653,59.788 216.680 L 58.778 215.800 58.770 203.436 C 58.763 193.723,58.872 191.001,59.280 190.742 C 59.951 190.316,62.448 190.316,63.119 190.741 M292.088 194.390 C 288.029 196.138,286.387 205.755,289.414 210.056 C 292.374 214.264,299.080 213.936,301.501 209.465 C 302.237 208.104,302.510 200.413,301.894 198.400 C 300.865 195.044,295.585 192.885,292.088 194.390 M318.400 194.258 C 316.523 194.631,316.400 195.206,316.400 203.627 C 316.400 212.463,316.291 212.133,319.427 212.791 C 324.235 213.800,329.341 211.366,330.663 207.435 C 333.512 198.958,327.460 192.455,318.400 194.258 M76.953 204.532 C 67.942 207.092,74.374 214.865,83.922 212.956 C 86.730 212.394,88.385 205.676,86.026 204.414 C 85.000 203.865,79.029 203.942,76.953 204.532 M178.544 204.523 C 173.600 206.401,173.570 211.129,178.493 212.591 C 182.250 213.706,187.554 213.180,188.395 211.609 C 189.117 210.261,188.904 205.167,188.100 204.557 C 187.205 203.877,180.307 203.853,178.544 204.523 M348.763 204.421 C 343.482 205.672,343.340 211.207,348.549 212.743 C 351.359 213.571,356.546 213.232,357.629 212.149 C 358.721 211.057,359.000 205.325,358.000 204.513 C 357.308 203.950,351.013 203.888,348.763 204.421 " stroke="none" fill="#0c5bf3" fill-rule="evenodd"></path><path id="path1" d="M27.900 172.557 C 27.053 173.200,26.807 210.248,27.633 212.840 C 29.021 217.199,30.641 217.657,44.136 217.509 L 54.071 217.400 54.860 216.425 C 55.659 215.438,55.610 213.877,54.752 213.000 C 54.517 212.759,50.119 212.555,43.681 212.488 C 34.279 212.389,32.940 212.296,32.500 211.711 C 32.116 211.202,32.000 206.618,32.000 192.004 C 32.000 177.725,31.880 172.840,31.520 172.480 C 30.885 171.845,28.779 171.890,27.900 172.557 M129.876 172.574 C 129.192 173.093,129.159 174.209,129.276 193.062 C 129.418 215.872,129.245 214.724,132.800 216.497 L 135.000 217.594 145.536 217.497 L 156.072 217.400 156.861 216.425 C 157.750 215.326,157.588 213.730,156.502 212.900 C 156.016 212.529,153.129 212.400,145.338 212.400 C 135.357 212.400,134.807 212.361,134.414 211.626 C 134.145 211.124,134.000 204.202,134.000 191.906 C 134.000 177.704,133.880 172.840,133.520 172.480 C 132.878 171.838,130.776 171.892,129.876 172.574 M251.800 172.552 C 237.828 177.319,231.060 196.062,239.056 207.844 C 239.575 208.609,240.000 209.368,240.000 209.530 C 240.000 210.743,246.307 215.638,248.800 216.361 C 249.790 216.648,250.829 217.069,251.109 217.298 C 251.829 217.885,258.685 218.154,260.600 217.670 C 270.069 215.279,269.770 215.664,269.914 205.692 C 270.092 193.307,270.166 193.400,260.085 193.400 C 252.615 193.400,252.412 193.458,252.412 195.600 C 252.412 197.618,252.786 197.765,258.479 197.990 C 265.341 198.261,264.800 197.657,264.800 205.044 L 264.800 211.241 263.361 211.842 C 259.818 213.322,252.091 213.081,248.800 211.387 C 236.760 205.190,238.772 182.186,251.747 177.700 C 254.425 176.774,260.905 176.399,261.365 177.143 C 261.803 177.852,266.342 178.546,266.995 178.005 C 271.087 174.608,258.749 170.181,251.800 172.552 M274.480 172.480 C 273.870 173.090,273.785 214.581,274.390 216.174 C 274.898 217.510,277.324 217.663,277.999 216.401 C 278.830 214.849,278.741 172.955,277.905 172.434 C 276.981 171.856,275.078 171.882,274.480 172.480 M312.494 172.334 C 311.758 172.800,311.763 215.153,312.499 215.831 C 313.670 216.911,320.160 218.133,323.400 217.883 C 336.357 216.886,341.083 199.066,330.345 191.697 C 327.982 190.075,325.558 189.527,320.808 189.539 C 316.087 189.552,316.414 190.202,316.406 180.780 C 316.402 175.238,316.260 172.820,315.920 172.480 C 315.378 171.938,313.260 171.847,312.494 172.334 M368.414 172.583 C 367.998 173.085,367.732 198.614,367.985 213.800 C 368.047 217.502,370.638 219.029,371.954 216.140 C 372.612 214.696,372.580 173.140,371.920 172.480 C 371.253 171.813,368.999 171.879,368.414 172.583 M59.805 181.668 C 58.197 182.932,58.308 186.899,59.970 187.588 C 62.078 188.461,63.373 187.464,63.522 184.853 C 63.706 181.636,61.858 180.053,59.805 181.668 M161.858 181.626 C 160.089 183.017,160.356 186.530,162.308 187.558 C 165.234 189.099,167.040 183.203,164.158 181.519 C 162.944 180.811,162.891 180.813,161.858 181.626 M76.002 189.594 C 71.126 190.354,70.000 191.223,70.000 194.231 C 70.000 196.083,70.811 196.336,73.094 195.196 C 78.999 192.247,88.373 194.729,85.853 198.575 C 85.475 199.153,84.991 199.518,84.778 199.387 C 83.814 198.790,74.993 200.046,72.924 201.075 C 66.299 204.368,66.228 212.861,72.800 216.076 C 77.806 218.526,86.926 218.298,91.186 215.616 C 92.270 214.933,91.992 198.037,90.849 195.115 C 89.044 190.507,83.464 188.432,76.002 189.594 M104.800 189.866 C 103.150 190.193,100.745 190.441,99.456 190.418 C 95.803 190.352,96.000 189.608,96.000 203.475 C 96.000 216.859,96.054 217.200,98.190 217.200 C 100.160 217.200,100.181 217.103,100.400 206.758 L 100.600 197.315 101.957 196.158 C 105.338 193.273,112.318 193.201,115.023 196.023 L 116.200 197.251 116.400 206.659 C 116.618 216.920,116.689 217.200,119.076 217.200 C 122.906 217.200,122.766 197.157,118.908 193.094 C 115.616 189.627,111.158 188.607,104.800 189.866 M177.654 189.639 C 173.387 190.290,171.822 191.535,172.076 194.078 C 172.268 196.004,173.292 196.387,175.248 195.266 C 178.962 193.137,186.460 193.660,187.796 196.141 C 189.103 198.567,188.474 198.961,182.329 199.559 C 175.725 200.202,173.366 201.163,171.390 204.014 C 168.464 208.237,170.190 214.090,174.987 216.211 C 179.004 217.988,186.618 218.538,189.110 217.232 C 189.490 217.034,190.631 216.579,191.646 216.223 L 193.491 215.575 193.691 213.288 C 195.416 193.591,191.322 187.555,177.654 189.639 M206.600 189.874 C 205.060 190.204,202.684 190.451,201.321 190.424 C 197.883 190.355,198.000 189.884,198.000 203.755 C 198.000 216.724,198.130 217.600,200.055 217.600 C 202.157 217.600,202.342 216.760,202.477 206.583 L 202.600 197.367 204.000 196.103 C 207.121 193.286,214.356 193.241,217.023 196.023 L 218.200 197.251 218.400 206.793 C 218.510 212.041,218.690 216.403,218.800 216.487 C 220.319 217.637,221.981 217.477,223.100 216.074 C 224.000 214.946,223.777 200.417,222.808 197.029 C 220.998 190.697,215.042 188.068,206.600 189.874 M293.800 189.400 C 293.580 189.475,292.559 189.650,291.531 189.788 C 285.307 190.625,281.681 199.466,283.736 208.800 C 284.417 211.898,287.184 216.000,288.593 216.000 C 288.867 216.000,289.596 216.396,290.212 216.881 C 292.005 218.291,297.844 218.199,300.655 216.716 C 308.869 212.383,309.920 196.823,302.375 191.245 C 300.549 189.894,295.517 188.812,293.800 189.400 M347.655 189.640 C 342.781 190.381,341.766 191.255,342.071 194.445 C 342.218 195.989,343.454 196.489,344.511 195.432 C 345.882 194.061,353.189 193.483,355.731 194.545 C 358.382 195.653,359.086 199.591,356.583 199.313 C 345.594 198.095,337.176 204.769,340.518 212.050 C 343.180 217.850,357.387 220.019,363.100 215.498 C 364.480 214.406,363.598 197.013,361.985 193.514 C 360.514 190.322,354.270 188.634,347.655 189.640 M161.900 190.495 L 160.800 190.867 160.800 203.404 L 160.800 215.942 161.863 216.778 C 163.017 217.686,164.243 217.574,165.100 216.483 C 165.530 215.936,165.919 190.800,165.497 190.800 C 165.441 190.800,164.856 190.648,164.197 190.462 C 163.511 190.268,162.530 190.282,161.900 190.495 M59.280 190.742 C 58.872 191.001,58.763 193.723,58.770 203.436 L 58.778 215.800 59.788 216.680 C 60.905 217.653,62.903 217.352,63.368 216.139 C 63.888 214.784,63.655 191.082,63.119 190.741 C 62.448 190.316,59.951 190.316,59.280 190.742 M300.227 195.872 C 303.333 199.361,303.088 208.942,299.827 211.507 C 292.960 216.909,284.985 207.827,288.563 198.681 C 290.503 193.726,296.937 192.176,300.227 195.872 M327.558 195.612 C 332.000 198.490,332.703 206.860,328.817 210.584 C 326.439 212.862,319.053 213.704,316.927 211.940 C 316.190 211.328,316.165 196.057,316.900 195.105 C 318.168 193.461,324.719 193.772,327.558 195.612 M86.026 204.414 C 88.385 205.676,86.730 212.394,83.922 212.956 C 76.290 214.482,69.648 209.851,74.053 206.074 C 76.177 204.253,83.761 203.202,86.026 204.414 M188.100 204.557 C 188.904 205.167,189.117 210.261,188.395 211.609 C 187.554 213.180,182.250 213.706,178.493 212.591 C 173.570 211.129,173.600 206.401,178.544 204.523 C 180.307 203.853,187.205 203.877,188.100 204.557 M358.000 204.513 C 359.000 205.325,358.721 211.057,357.629 212.149 C 356.546 213.232,351.359 213.571,348.549 212.743 C 343.340 211.207,343.482 205.672,348.763 204.421 C 351.013 203.888,357.308 203.950,358.000 204.513 " stroke="none" fill="#d0ecfb" fill-rule="evenodd"></path></g></svg>