<?xml version="1.0" standalone="no"?>
<!DOCTYPE svg PUBLIC "-//W3C//DTD SVG 20010904//EN"
 "http://www.w3.org/TR/2001/REC-SVG-20010904/DTD/svg10.dtd">
<svg version="1.0" xmlns="http://www.w3.org/2000/svg"
 width="1336.000000pt" height="1336.000000pt" viewBox="0 0 1336.000000 1336.000000"
 preserveAspectRatio="xMidYMid meet">

<g transform="translate(0.000000,1336.000000) scale(0.100000,-0.100000)"
fill="#000000" stroke="none">
<path d="M1095 13340 c-536 -108 -949 -530 -1051 -1075 -18 -97 -19 -258 -19
-5570 0 -5203 1 -5474 18 -5560 111 -563 519 -971 1082 -1082 86 -17 357 -18
5565 -18 5225 0 5479 1 5565 18 280 56 520 182 711 373 190 191 319 439 370
709 18 97 19 259 19 5570 0 5203 -1 5474 -18 5560 -104 527 -464 915 -987
1063 l-95 27 -5535 2 c-5317 1 -5539 1 -5625 -17z m7085 -1134 c0 -118 13
-218 50 -371 92 -387 273 -716 544 -990 373 -376 845 -591 1362 -621 l112 -7
7 -321 c3 -177 5 -509 3 -740 l-3 -419 -115 2 c-617 9 -1316 230 -1845 584
l-100 67 -6 -1612 c-6 -1742 -4 -1687 -59 -1960 -116 -568 -428 -1111 -858
-1494 -420 -374 -902 -596 -1477 -680 -166 -25 -541 -25 -715 -1 -592 83
-1118 337 -1542 745 -155 150 -265 281 -384 459 -241 359 -389 761 -445 1208
-21 167 -16 523 10 695 51 332 135 596 282 879 486 940 1471 1516 2524 1477
99 -3 203 -9 231 -12 l51 -6 6 -256 c8 -281 9 -1262 3 -1262 -3 0 -42 9 -88
20 -384 91 -776 3 -1085 -245 -293 -235 -463 -592 -463 -975 0 -448 229 -846
623 -1083 195 -118 395 -170 642 -170 328 1 620 121 861 355 184 178 293 372
361 646 16 62 17 296 20 3125 l3 3057 745 0 745 0 0 -94z m-4160 -9332 c0 -9
-25 -94 -56 -190 l-55 -174 -175 0 -174 0 0 -700 0 -700 -220 0 -220 0 0 705
0 705 -215 0 -215 0 0 185 0 185 665 0 c602 0 665 -2 665 -16z m403 -16 c139
-77 141 -279 4 -358 -92 -53 -195 -36 -264 44 -154 174 56 427 260 314z m715
-382 l2 -409 210 207 209 206 258 0 258 0 -80 -77 c-44 -43 -165 -160 -268
-262 l-188 -185 35 -50 c19 -28 152 -220 295 -426 l259 -375 -216 -3 c-119 -1
-222 0 -228 2 -6 2 -102 135 -214 294 l-204 290 -63 -56 -63 -57 0 -232 0
-233 -215 0 -215 0 0 883 c0 486 3 887 7 891 4 3 99 5 212 4 l206 -3 3 -409z
m2432 412 c0 -2 -27 -86 -59 -188 l-59 -185 -176 -3 -176 -2 0 -700 0 -700
-220 0 -220 0 0 705 0 705 -215 0 -215 0 0 185 0 185 670 0 c369 0 670 -1 670
-2z m2120 -415 l0 -418 213 213 212 212 253 0 c140 0 252 -4 250 -9 -1 -4
-118 -120 -258 -257 -140 -136 -254 -253 -254 -260 1 -10 369 -548 542 -792
l44 -62 -229 0 -228 1 -205 293 -204 294 -68 -61 -68 -60 0 -228 0 -229 -210
0 -210 0 0 890 0 890 210 0 210 0 0 -417z m-1296 77 c163 -24 309 -102 428
-229 122 -129 185 -276 195 -451 20 -336 -192 -635 -522 -740 -88 -28 -303
-38 -426 -20 -298 43 -539 254 -615 540 -22 81 -24 263 -5 340 76 306 327 527
636 560 104 11 231 11 309 0z m-3864 -835 l0 -605 -210 0 -210 0 0 605 0 605
210 0 210 0 0 -605z"/>
<path d="M8149 2157 c-111 -47 -186 -133 -215 -246 -44 -173 57 -356 228 -417
60 -21 182 -20 240 3 116 45 195 135 224 256 14 56 15 79 7 126 -23 122 -96
221 -201 269 -83 38 -205 42 -283 9z"/>
</g>
</svg>
